<?xml version="1.0" standalone="no"?>
<!DOCTYPE svg PUBLIC "-//W3C//DTD SVG 1.1//EN" "http://www.w3.org/Graphics/SVG/1.1/DTD/svg11.dtd" >
<svg xmlns="http://www.w3.org/2000/svg">
<metadata>
This is a custom SVG webfont generated by Font Squirrel.
Copyright   : Copyright c 2011 TypeSETit LLC typesetitattnetwith Reserved Font Names Bilbo and Bilbo Swash Caps
Designer    : Robert E Leuschke
Foundry     : Robert E Leuschke
</metadata>
<defs>
<font id="BilboSwashCapsRegular" horiz-adv-x="591" >
<font-face units-per-em="2048" ascent="1638" descent="-410" />
<missing-glyph horiz-adv-x="409" />
<glyph unicode=" "  horiz-adv-x="409" />
<glyph unicode="&#x09;" horiz-adv-x="409" />
<glyph unicode="&#xa0;" horiz-adv-x="409" />
<glyph unicode="!" horiz-adv-x="413" d="M156 49q0 31 30.5 60.5t64.5 42t42 0.5l2 -2v-3q-4 -16 -11.5 -46.5t-12.5 -54t-5 -30.5q0 -37 -65 -51q-20 -2 -31.5 14.5t-12.5 32t-1 37.5zM312.5 416.5q0.5 29.5 19 90t41 118t54.5 131t56.5 130t51 115t36.5 82.5q6 18 54.5 113.5t52.5 116.5q4 6 -2 7t-17.5 5 t-15.5 16q3 25 80 33q85 8 86 -28q0 -7 -4 -15q-53 -61 -246.5 -465.5t-152.5 -429.5q25 -29 -15.5 -52.5t-66.5 -14.5q-12 18 -11.5 47.5z" />
<glyph unicode="&#x22;" horiz-adv-x="831" d="M182 821h2q82 82 157 188.5t42 139.5l-2 2q-23 23 -17.5 56.5t31.5 54.5l2 2v-2q4 4 10.5 9t22.5 15t30.5 16.5t30 5t23.5 -15.5q14 -43 15 -62.5t-9 -35.5t-12 -20l2 -3q-63 -192 -223 -312q-81 -61 -102 -46q-4 3 -3 8zM451 838l2 2q80 80 154.5 187.5t41.5 137.5v2 q-23 25 -17.5 57.5t30.5 53.5l4 2q4 4 10 9t22.5 15.5t30.5 16.5t28.5 4t22.5 -16q10 -33 13.5 -54.5t0.5 -28.5t-9.5 -17.5t-8.5 -18.5v-2q-63 -191 -223 -312q-80 -61 -100 -47q-3 3 -2 9z" />
<glyph unicode="#" horiz-adv-x="1376" d="M-14 406q-4 16 17.5 26t44.5 13l24 4h288q29 74 111 303l-172 -2q-152 0 -162 38q-4 16 17.5 26.5t45.5 12.5l23 2q182 0 275 -2q14 37 39.5 112t40.5 114q29 74 40 75q6 2 10.5 -2t6.5 -13t2 -14v-13v-3q0 -104 -27 -172l-32 -86q55 0 165.5 -1t167.5 -1q43 117 95 232 q31 68 47 71q8 2 13 -11t3 -34q-4 -88 -31 -170l-32 -86q131 0 260 6q80 4 86 -8q2 -4 2 -6t-3 -5t-6.5 -6t-8.5 -5t-8 -4t-7 -4t-6 -2q-111 -37 -172 -37h-166q-109 -291 -113 -303h250q77 0 86 -13q6 -10 -9 -19t-28 -13q-98 -33 -172 -33l-157 -2q-53 -143 -62 -168 q-20 -61 -45 -100.5t-45 -36.5q-16 0 -19.5 23.5t2.5 46.5l5 24q16 45 78 211l-342 -2q-12 -33 -33 -90.5t-29 -75.5q-20 -61 -45 -100.5t-45 -36.5q-16 0 -19.5 23.5t3.5 46.5l6 24q46 108 86 209h-183q-150 -4 -161 37zM436 449h340q57 168 107 305l-334 -2 q-109 -291 -113 -303z" />
<glyph unicode="$" horiz-adv-x="1171" d="M86 106q6 59 55 60q4 0 5 -10.5t3.5 -27.5t8.5 -28q31 -68 153 -67q55 186 166 477q-59 23 -91 37t-74 40.5t-60.5 63.5t-18.5 84q2 123 135.5 218.5t313.5 115.5q84 219 102 231q23 7 31 3q18 -14 4 -52q-18 -39 -74 -178h19q98 0 126 -47t21 -121q-4 -23 -24.5 -48.5 t-36.5 -16.5q-4 2 -3 16t5 33.5t0 40.5q-14 80 -131 84q-106 -274 -172 -455q159 -60 202 -98q67 -59 40 -152q-33 -111 -154 -202t-281 -115q-47 -162 -55 -230q-6 -43 3 -67.5t26 -24.5q6 0 2 -14q-8 -23 -31 -35q-41 -20 -49 37q-23 94 45 328q-18 -2 -57 -2 q-102 2 -133 37.5t-21 84.5zM313 768q0 -70 50.5 -113t138.5 -77q0 2 10 26l150 408q-74 -6 -151 -36t-137.5 -85t-60.5 -123zM369 35q106 10 203 72.5t124 146.5q31 96 -16 146.5t-156 91.5q-100 -276 -155 -457z" />
<glyph unicode="%" horiz-adv-x="1220" d="M166 772q0 104 152.5 292.5t244.5 188.5q63 0 83 -51t-1 -104q2 -4 16.5 -4t33 2t20.5 2q174 23 407 129q8 4 11 4q18 0 32 -14q20 -20 -8 -52q-240 -279 -542 -682t-355 -551q-29 -82 8 -100q10 -4 0 -14q-14 -18 -36.5 -18.5t-28.5 26.5t3 70t17 71.5t17 52.5 q45 121 343 531t472 606q-86 -41 -215 -79t-205 -40q10 -33 -47.5 -127t-147.5 -177t-155 -83h-27q-45 0 -68.5 42t-23.5 79zM248 758q0 -55 41 -56q74 0 189.5 135.5t115.5 196.5q-14 8 -31.5 27.5t-27.5 36.5l-11 16q-59 0 -168.5 -141.5t-107.5 -214.5zM514 -23 q0 104 152.5 293t244.5 189q121 0 82 -156q3 -4 17 -6q21 -2 10 -23q-9 -17 -37 -28q10 -33 -47 -127t-147.5 -178t-155.5 -84h-27q-45 0 -68.5 42t-23.5 78zM596 -37q0 -53 41 -53q74 0 189.5 135.5t115.5 194.5q-14 8 -31.5 27.5t-27.5 35.5l-11 16q-59 0 -168.5 -141 t-107.5 -215z" />
<glyph unicode="&#x26;" horiz-adv-x="1765" d="M96 265q46 161 248 276q70 40 154 67q-265 23 -265 185q0 121 88.5 221t223.5 159.5t283.5 91t283.5 31.5q139 0 231.5 -35.5t121 -107.5t-45.5 -180q-55 -80 -181 -129t-208 -49q-16 0 -18 10q6 16 26 20q55 0 155.5 55.5t127.5 118.5q51 125 -18.5 190.5t-225.5 65.5 q-106 0 -230 -29.5t-242 -84t-195.5 -146.5t-77.5 -202q0 -63 76.5 -95t170 -30t154.5 26q50 17 63 -11q14 -30 -43 -54q-34 -14 -87 -19q-295 -80 -408 -258t32.5 -293.5t479.5 -44.5q254 53 368 225q85 129 37 232q-51 111 -215 92l-16 -2q-174 -27 -127 -166 q10 -29 -8 -28q-25 1 -42 41q-7 17 -7 36q0 98 88 144.5t205 46.5q59 0 122.5 -12.5t148.5 -35t118 -28.5q143 -31 184 -12q33 14 44 6t-11 -35q-10 -10 -24.5 -18t-38 -10.5t-41 -4.5t-49 0t-45 3t-46.5 5.5t-37 4.5q-35 4 -74.5 15t-75.5 24.5t-48 17.5q43 -20 73.5 -66.5 t30.5 -101.5q0 -121 -158.5 -246t-365.5 -172q-403 -87 -583 49q-124 94 -81 247z" />
<glyph unicode="'" horiz-adv-x="428" d="M281 684v2q80 80 154.5 187.5t43.5 138.5l-2 2q-23 23 -17.5 56.5t32.5 53.5l2 2h2q4 4 10 9.5t22.5 15.5t30.5 16.5t28.5 4t22.5 -16.5q41 -80 -4 -121q-63 -191 -223 -312q-80 -61 -100 -46q-3 3 -2 8z" />
<glyph unicode="(" horiz-adv-x="548" d="M-38 324.5q3 185.5 63 382.5q35 117 110.5 233.5t183 219t257 166t313.5 63.5h2q53 -11 10 -58q-35 -39 -67 -39q-135 -2 -260 -59t-216.5 -148.5t-155 -190.5t-98.5 -200q-53 -160 -71.5 -324.5t16.5 -295.5t131 -156q50 -4 49 -29q0 -24 -38 -21q-10 1 -21 5 q-100 18 -155.5 142t-52.5 309.5z" />
<glyph unicode=")" horiz-adv-x="813" d="M-49 -115q-34 12 3 68q35 53 73 53q164 2 340 203t307 473h2q39 80 63.5 162t29.5 172t-17.5 157.5t-94 110.5t-188.5 39q-21 0 -39.5 27.5t27.5 29.5q164 8 256 -62.5t108.5 -187t-3 -238.5t-68.5 -241q-137 -328 -360.5 -547t-436.5 -219h-2z" />
<glyph unicode="*" horiz-adv-x="415" d="M47 1130q-29 57 119 95q-31 12 -44 18t-40 20.5t-35 31t0 32.5q45 49 137 -61q-35 141 27 145q61 -8 22 -143q98 98 129 67q29 -29 -14 -58.5t-98 -49.5q25 -8 43 -14.5t41.5 -19.5t33 -30.5t-0.5 -36.5q-37 -45 -131 56q39 -141 -23 -142q-63 0 -29 142 q-96 -96 -137 -52z" />
<glyph unicode="+" horiz-adv-x="776" d="M120 336.5q3 13.5 19.5 25t38.5 13.5l203 -4q2 6 38 111.5t42 127.5q8 25 45 38q27 9 31 -9q0 -70 -78 -270q2 0 72.5 2t127 2t70.5 -6q42 -26 -34 -36q-28 -3 -105 -7q-108 -6 -150 -13q-31 -119 -110 -286q-42 -90 -45 -27q-2 47 8 61q78 240 72 256l-63 -1 q-62 -1 -116 -1h-61q-8 10 -5 23.5z" />
<glyph unicode="," horiz-adv-x="413" d="M2 -336q84 86 157.5 192.5t41.5 135.5h-2q-20 27 -16.5 59.5t30.5 52.5l2 2h2q4 4 10 9.5t22.5 15.5t31 16.5t29 4t22.5 -16.5q14 -43 15 -62.5t-9 -36t-12 -20.5q-63 -193 -224 -314q-82 -62 -99 -46q-3 3 -1 8z" />
<glyph unicode="-" d="M57 254q-20 20 2.5 49t49.5 41q56 25 54 -1q-1 -12 -11 -21q157 -11 237 -7q74 2 105 4q40 2 36 -12q-2 -10 -24 -16q-57 -18 -192.5 -31.5t-217.5 -9.5q-31 0 -39 4z" />
<glyph unicode="." horiz-adv-x="505" d="M231 53q0 27 32 55.5t63.5 42t35.5 3.5q-4 -16 -11 -47t-12 -54.5t-5 -29.5q-6 -35 -62 -50q-18 -2 -27 12.5t-11.5 30t-2.5 37.5z" />
<glyph unicode="/" horiz-adv-x="1236" d="M41 -188q0 68 39 162t133 241t153.5 231t196.5 277q127 178 261 347t221.5 264.5t103.5 95.5q25 -1 39 -17q25 -25 -8 -61q-276 -317 -635 -797.5t-422 -652.5q-35 -94 10 -117q10 -4 0 -18q-16 -20 -43 -21q-49 0 -49 66z" />
<glyph unicode="0" horiz-adv-x="1142" d="M58.5 189.5q-3.5 181.5 134.5 408.5q84 139 237.5 270t306.5 201q-12 12 -5 20.5t24 10.5q31 6 73 2q51 20 158 15t107 -46q-4 -22 -35 -10q-59 20 -107 18q57 -20 99 -61q137 -147 76.5 -367.5t-261.5 -398.5q-170 -150 -345 -215.5t-318 -46.5q-141 18 -144.5 199.5z M139.5 213q-20.5 -176 83.5 -184q131 -12 280.5 63.5t280.5 192.5q121 106 189.5 227t78 215t-5 161.5t-45.5 92.5q-83 64 -159 80q-164 -51 -319.5 -200.5t-241.5 -285.5q-121 -186 -141.5 -362z" />
<glyph unicode="1" horiz-adv-x="608" d="M-1 11.5q1 21.5 15 27.5q160 59 176 63q49 84 209 380t228 417q-113 -68 -244 -115q-23 -10 -27 13q-3 19 17 26q113 43 329 209l11 19q21 36 85 31q46 -3 42 -29q-1 -5 -4 -11l-562 -925q115 20 250 20q22 0 17 -23q-4 -20 -25 -20q-37 0 -71.5 -3t-74.5 -12 t-65.5 -15.5t-73 -23.5t-63.5 -23.5t-70.5 -29t-66.5 -26.5q-14 -4 -23.5 12.5t-8.5 38z" />
<glyph unicode="2" horiz-adv-x="1257" d="M2 19q3 43 68 87q14 10 28 17q35 16 109 30.5t110 10.5q387 219 512 317q121 94 189.5 179t89.5 196q14 90 -56.5 114.5t-183.5 -9.5q-256 -66 -413 -213q-20 -18 -31 2q-9 18 8 32q141 119 321.5 200t346.5 81q154 0 154 -129t-162 -295q-98 -104 -252 -217 q-174 -125 -480 -277q76 -6 256 -65q172 -53 289 -53q152 0 185 75q16 33 -6.5 67t-88.5 56q-22 8 -8 21q8 8 25 4q137 -39 137 -127q0 -72 -76 -115t-178 -43q-119 0 -324 74q-14 6 -49 19.5t-56.5 20.5t-52 17t-59 14.5t-57.5 6.5q-27 -8 -101.5 -59.5t-117.5 -61.5 q-79 -18 -76 23z" />
<glyph unicode="3" horiz-adv-x="1245" d="M68 209q0 125 120.5 200.5t262.5 75.5q21 0 21 -13q0 -17 -26 -17q-96 0 -185 -70t-89 -174q0 -90 79 -138t206 -48q152 0 295 47t246.5 150.5t103.5 238.5q0 68 -46 108.5t-114 50t-136.5 4t-123.5 -23.5q-60 -22 -65 19q-4 34 28 51q11 6 23 6q186 0 323 63 q68 31 107 83t39 108q0 45 -46.5 67.5t-134.5 3.5q-174 -33 -323 -133q-25 -16 -24 18q3 44 32 60q66 33 127 94q19 17 26 2q6 -13 -8 -28q0 -2 -6 -6t-8 -9q35 14 75 27.5t98.5 30t108.5 19.5t95 -3t71.5 -36.5t26.5 -82.5q0 -88 -103.5 -173t-207.5 -105q264 -27 264 -209 q0 -143 -125 -258t-294 -171t-330 -56q-174 0 -278.5 56t-104.5 171z" />
<glyph unicode="4" horiz-adv-x="989" d="M71 448q-16 46 24 67q5 3 11 5q43 12 97 23q268 133 545.5 293.5t353.5 261.5q17 22 66 3q32 -12 20 -28q-37 -49 -136.5 -176t-169 -219t-130.5 -184q117 -39 206 -39q57 0 104.5 38.5t29.5 112.5q-2 12 4 18.5t17 2.5t17 -15q33 -53 33 -92t-20.5 -59.5t-59.5 -31.5 t-69.5 -14t-63.5 -3q-94 0 -225 34q-6 -10 -34.5 -54t-47 -75.5t-42 -74.5t-35 -77t-9.5 -56q123 14 211 14q22 0 17 -23q-4 -20 -25 -20q-37 0 -72 -3t-75 -12.5t-65.5 -15.5t-72.5 -23.5t-63.5 -23.5t-70.5 -28.5t-67 -26.5q-14 -4 -23 12t-8 37.5t15 28.5q158 59 217 71 l37 6q-14 111 150 361q-131 35 -220 35q-123 0 -325 -76q-32 -12 -46 26zM328 559q66 6 118 6q88 0 240 -49q18 29 63.5 97.5t90.5 135t88 123.5l41 52q-217 -148 -641 -365z" />
<glyph unicode="5" horiz-adv-x="1255" d="M25 117q0 59 31.5 107t109.5 108q30 23 46 -0.5t-13 -39.5q-3 -2 -6 -3q-35 -12 -63 -58.5t-28 -80.5q0 -78 73 -119t181 -41q104 0 225 40t227.5 109.5t177.5 176t71 223.5q0 70 -62.5 105.5t-148.5 36.5t-169 -14.5t-132 -39.5q-20 -10 -73.5 -40t-86.5 -44 q-25 -11 -27 17t23 40l231 301q16 22 82 21q31 -1 31 -11q0 -3 -4 -8l-225 -262q45 37 157.5 63.5t231.5 28.5t210 -44t91 -140q0 -147 -125 -290.5t-319.5 -230.5t-389.5 -87q-141 0 -234 51t-93 125zM576 939q-4 48 28 71q59 37 143 42t147.5 -7.5t154.5 -36.5 q160 -45 237 -45q35 0 86 24.5t51 67.5q0 12 7.5 20t16.5 6t13 -12q18 -55 -21.5 -92t-83.5 -47t-79 -10q-86 0 -237.5 22.5t-239.5 22.5q-117 0 -178 -50q-39 -19 -45 24z" />
<glyph unicode="6" horiz-adv-x="1153" d="M88 190q0 143 142.5 319.5t363.5 297.5q258 141 440 203l-30 6q-10 6 -9 12q20 35 195 27q81 -3 103 -49q13 -28 -15 -33q-258 -48 -633 -230q-160 -80 -327.5 -246.5t-167.5 -312.5q4 -172 217 -172q61 0 150 18.5t184.5 51.5t162 94.5t66.5 134.5q0 29 -24.5 49.5 t-74.5 20.5q-158 0 -267 -80t-136 -217q-6 -32 -28.5 -33t-16.5 29q31 170 155 260t322 90q82 0 128 -30.5t46 -82.5q0 -90 -74.5 -161.5t-186 -110.5t-219.5 -58.5t-196 -19.5q-135 0 -202.5 58.5t-67.5 164.5z" />
<glyph unicode="7" horiz-adv-x="860" d="M193 879q0 2 1 6l1 4q4 8 18 36.5t24.5 53.5t8.5 35q-4 18 4 41q4 14 12 10q6 -4 10 -18q2 -10 2 -35q123 109 328 108q82 0 234 -35q182 -39 217 -43q16 12 50 37t40 29q8 6 23.5 0t25.5 -21q35 -35 14 -49q-419 -302 -704 -587q-92 -90 -174 -229.5t-66 -227.5 q4 -19 -18 -20q-26 -1 -29 20q-20 100 52.5 235.5t174.5 249.5q236 266 564 527q-6 0 -89 13t-145.5 19t-132.5 6q-150 0 -238 -37.5t-127 -152.5q-14 -43 -55 -33t-26 58z" />
<glyph unicode="8" horiz-adv-x="1058" d="M7.5 170q19.5 84 101.5 172q188 211 466 356q-129 80 -100 162q37 96 151.5 161.5t230.5 73t204 -31.5q90 -53 14 -156l148 47q14 4 22 -4t4 -22q-4 -31 -49 -39q-215 -49 -463 -166q94 -39 160 -78q111 -72 125 -159t-52.5 -167.5t-173 -152.5t-237.5 -125 q-88 -37 -187.5 -57.5t-195.5 -12t-137 55.5q-51 59 -31.5 143zM98 96q8 -53 50 -76.5t105.5 -17.5t126 21.5t128.5 42.5q227 92 331.5 192t84 186t-149.5 152q-126 64 -149 76q-53 -29 -136 -90.5t-178.5 -144.5t-159 -177t-53.5 -164zM580 852q6 -61 106 -107 q242 113 332 144q29 51 33 72q14 43 -29 59q-104 33 -205.5 20.5t-173 -67.5t-63.5 -121z" />
<glyph unicode="9" horiz-adv-x="765" d="M131 633q4 111 110.5 205t257 146t296 81t243.5 25q12 0 13 -17q-2 -16 -17.5 -37.5t-29.5 -19.5q-158 10 -342.5 -39t-315.5 -140.5t-135 -187.5q-2 -35 18.5 -47t59.5 -8q78 10 205 78q240 125 483 325q22 18 74 0q55 -20 14 -55q-10 -10 -45 -40t-73 -63.5t-73 -66.5 q-608 -557 -591 -950q0 -47 24 -58q27 -8 10 -22q-12 -9 -36 -6q-27 2 -48.5 24.5t-23.5 69.5q-6 186 174 464.5t408 502.5q-266 -182 -459 -236q-94 -27 -148.5 -8.5t-52.5 80.5z" />
<glyph unicode=":" horiz-adv-x="413" d="M184 211q0 31 31 60.5t64.5 42t42.5 -0.5h2v-2q-4 -16 -11.5 -47t-12.5 -54.5t-5 -29.5q0 -41 -66 -51q-20 -2 -31.5 14.5t-12.5 30.5t-1 37zM270 631q0 31 31 60.5t64.5 41.5t42.5 2l2 -2v-2q-4 -16 -11.5 -47t-12.5 -53.5t-5 -28.5q0 -39 -66 -53q-20 -2 -31.5 14.5 t-12.5 30.5t-1 37z" />
<glyph unicode=";" horiz-adv-x="413" d="M57 -279q10 16 28.5 40t35 44.5t34 44t29 44t19.5 39t7 34t-11 25.5q-20 27 -16.5 59.5t30.5 52.5l2 2h2q4 4 10 9.5t22.5 15.5t31 16.5t29 4t22.5 -16.5q14 -43 15 -62.5t-9 -36t-12 -20.5q-62 -198 -188 -284q-63 -44 -78 -21q-2 3 -3 8v2zM299 415v7q0 29 30.5 58.5 t63.5 43t41 0.5v-2q-27 -127 -26 -131q0 -35 -68 -51q-41 -4 -41 75z" />
<glyph unicode="&#x3c;" horiz-adv-x="651" d="M174 524q0 18 49 92t117 164t76 103q12 23 39 22q14 0 14 -12t-82 -136t-121 -177q4 -6 32 -39t52.5 -65t52 -68.5t45 -64.5t17.5 -38q0 -27 -21 -26l-16 8q-76 102 -248 225q-6 6 -6 12z" />
<glyph unicode="=" horiz-adv-x="817" d="M229 250q-20 20 2.5 49t49.5 41q56 25 54 -1q-1 -12 -11 -22q157 -10 237 -6q74 2 105 4q40 2 36 -12q-2 -10 -24 -16q-57 -18 -192.5 -31.5t-217.5 -9.5q-31 0 -39 4zM238 418q-20 20 2 49t49 41q56 25 54 -1q-1 -12 -11 -22q157 -10 237 -6q74 2 105 4q40 2 37 -12 q-2 -10 -25 -16q-57 -18 -192.5 -31.5t-217.5 -9.5q-31 0 -38 4z" />
<glyph unicode="&#x3e;" horiz-adv-x="651" d="M174 276.5q0 12.5 82 136.5t121 177q-201 238 -201 274q0 27 23 27l16 -8q70 -94 248 -226q6 -2 6 -12q0 -18 -50 -92t-118 -164t-76 -102q-14 -23 -39 -23q-12 0 -12 12.5z" />
<glyph unicode="?" horiz-adv-x="950" d="M213 14v20v15q0 31 34 60.5t69.5 42t43.5 0.5l2 -2q-4 -25 -23.5 -76t-19.5 -56v-2q-10 -37 -69 -51h-2q-10 0 -17.5 5t-10.5 10.5t-5 16.5t-2 17zM272 1007q7 42 37 83q88 121 274.5 196.5t356.5 55t207 -153.5q23 -80 -8 -155t-133.5 -163t-182.5 -143t-253 -167 q-17 -12 -27 -17q-35 -23 -61.5 -55.5t-38 -55t-26 -61.5t-20.5 -54h-2q-24 -32 -47 2q-34 50 13 135q10 19 24 38q16 20 87 66t172 109.5t161 108.5h-2q94 70 152.5 161t64.5 170t-71 125t-234 28q-147 -18 -248.5 -97.5t-93.5 -189.5q4 -45 18.5 -66.5t26.5 -20.5t18 -7.5 t-4 -24.5v-2q-45 -37 -105 10q-71 55 -55 145z" />
<glyph unicode="@" horiz-adv-x="1646" d="M53 776q104 309 459 500q-12 0 -72.5 -3t-97.5 -4t-59 3q-14 6 -10.5 17t22.5 18q100 30 381 26q98 29 201.5 44.5t217 12t200.5 -31t143.5 -99t56.5 -180.5q0 -74 -37 -170q59 -113 60.5 -225.5t-58 -214.5t-148.5 -190.5t-212 -152t-249 -98t-258 -31.5t-241 48 q-203 86 -289 295t-10 436zM102.5 478q8.5 -126 78 -232.5t188.5 -157.5q90 -39 216 -34t252 47t247.5 114t204.5 165t123 202.5t-1 226.5q-61 -162 -248 -360q-195 -207 -311 -217q-71 -6 -86 79q-4 78 68 318q-307 -424 -420 -373q-41 23 -14.5 144.5t78.5 257t127 242 t130 99.5l23 17q14 16 41.5 20t55.5 -3t55.5 -15t42 -12.5t16.5 4.5q6 0 18 13t29 13q20 0 32.5 -6t15.5 -18.5t3 -25.5t-7 -32.5t-12.5 -33t-13.5 -32t-12 -26.5q-2 -6 -18.5 -14t-18.5 -12q-84 -236 -111 -404q-22 -134 41 -120q84 19 260 255q150 202 197 328 q-96 178 -287.5 267t-422.5 100q-174 -57 -321.5 -203t-205.5 -320q-41 -135 -32.5 -261zM487 406q-13 -96 66 -38q94 70 244 274q4 5 6 7q122 207 136 293q4 29 -13 23h-2q-14 0 -41 4t-53.5 4t-59.5 -8q-49 -12 -157.5 -222.5t-125.5 -336.5zM811 1307 q195 -20 353.5 -101.5t236.5 -216.5q12 51 12 101q0 104 -54 165.5t-147.5 77t-190.5 8t-210 -33.5z" />
<glyph unicode="A" horiz-adv-x="1257" d="M-2 -154q0 172 79 343t212 364q-236 0 -236 8q0 16 14.5 28.5t40 17.5t53 9.5t59.5 4.5t55.5 -1.5t42.5 -2.5l20 -1q223 301 545 611q-20 88 -21 112q0 41 49 41q61 0 72 -59q37 37 49 37q20 0 21 -39q0 -6 -1 -15.5t-1 -13.5q-6 -6 -22.5 -20.5t-24.5 -24.5 q55 -254 55 -629q172 0 186 -28q-4 -10 -76.5 -17.5t-109.5 -7.5v-477q141 76 170 76q18 -1 18 -15q0 -12 -33 -32q-166 -80 -294 -246q-8 -12 -19 -12q-20 0 -20 28q0 23 31.5 64t56.5 59q22 295 22 461q0 51 -2 90q-627 -6 -631 -6q-94 -145 -144 -233.5t-95 -226.5 t-45 -273q0 -106 49 -160q20 -25 15 -33t-34 -8q-55 0 -80.5 79t-25.5 148zM403 614h586q0 88 -26.5 271.5t-59.5 267.5q-367 -336 -500 -539z" />
<glyph unicode="B" horiz-adv-x="1761" d="M4 971q0 113 50 193.5t136 121.5t178.5 59.5t196.5 18.5q188 0 436 -53q29 68 62 96q10 -2 32.5 4t33 6t18.5 -1t19.5 -3t16.5 -9t1 -20q-23 -31 -60 -100q76 -20 154 -50t166 -77t142 -114.5t54 -145.5q0 -72 -46 -132t-122.5 -102t-143 -69t-138.5 -45q74 -4 160 -22.5 t178 -53.5t152.5 -98.5t60.5 -143.5q0 -78 -72 -153q-207 -217 -588 -217q-250 0 -438 67q0 -10 1 -26.5t1 -26.5q0 -25 -10 -37h-2q-13 0 -25 22q-12 24 -16 48t-4 39q-49 23 -104.5 59.5t-55.5 69.5q0 12 10 12q6 0 37 -19.5t67 -43t46 -27.5q0 225 126 602t261 653 q-248 59 -422 60q-86 0 -164 -15.5t-149.5 -49.5t-114.5 -101.5t-43 -159.5q0 -209 199 -393q8 41 20 41q14 0 35.5 -44t21.5 -61q0 -27 -36 -26q-76 0 -153 87t-121 195.5t-44 184.5zM647 -23q174 -69 429 -69h7q340 0 476 137q86 86 86 168t-67 142.5t-168 89t-191.5 42 t-163.5 13.5q-31 0 -152 -13.5t-129 -13.5q-104 -324 -127 -496zM797 543q33 10 91 15t77 9q74 12 154.5 34t186 60.5t172 99t66.5 132.5q0 63 -49 121.5t-128 99.5t-144.5 67.5t-128.5 45.5h-2q-166 -289 -295 -684z" />
<glyph unicode="C" horiz-adv-x="1542" d="M55 477q12 229 171 441t390.5 336t459 124t304.5 -102q18 55 19 80q0 4 -4 16t-2 19.5t16 7.5q16 0 32.5 -8.5t16.5 -20.5q0 -25 -7 -50.5t-18.5 -59t-15.5 -48.5q20 -49 20 -111q0 -11 -1 -22q-6 -118 -61 -118h-1q-63 0 -63 58v9q2 39 41 162q-35 57 -109 94t-168 37 q-217 0 -425 -118t-343 -316.5t-147 -417.5q-1 -19 -1 -38q1 -227 157 -373q170 -158 425 -158q109 0 207.5 20.5t163 47t130 70.5t96 72.5t73.5 71.5l49 49q10 14 34 39t28 11q1 -7 1 -14q1 -24 -13 -58q-18 -45 -40 -66q-127 -129 -342 -213t-411 -84q-338 0 -508 169 q-155 154 -155 413q0 24 1 49z" />
<glyph unicode="D" horiz-adv-x="1878" d="M-47 707q-62 65 -62 127q0 132 285 248q254 103 566 149q16 2 28 4q41 90 78 131h4q57 14 106 14q23 0 23 -8q-49 -49 -86 -129h17q226 0 410 -52q191 -54 306 -147q116 -92 174 -206q46 -89 45 -187q1 -27 -3 -55q-16 -127 -101 -246q-76 -106 -193.5 -192t-241.5 -136 t-247 -76q-106 -22 -195 -23q-14 0 -28 1q-100 4 -154 35q-63 35 -80 88q0 2 -1 5t-3 5q-8 -10 -29.5 -43.5t-35.5 -50.5q-25 -33 -48 -33q-5 0 -11 2q-26 9 -25 78v10q2 561 286 1154q-12 -2 -85.5 -17.5t-129.5 -28.5q-37 -8 -91 -25.5t-134 -48t-142.5 -66.5t-114.5 -81 q-53 -46 -53 -93q0 -45 42 -97q23 -23 41 -33q33 -33 43 -45h-9q6 -16 -14 -16l-43 14q-72 45 -94 70zM541 70q14 14 18 20q35 38 52 38q3 0 5 -1q10 -4 17 -25q2 -4 11 -23.5t13.5 -26.5t14.5 -21.5t21.5 -21.5t25.5 -13q56 -21 128 -21q140 -1 338 79q300 120 433 290 q151 201 151 357q-1 9 -1 18q-10 162 -140 269q-132 108 -334 158q-169 42 -355 42q-37 0 -75 -2q-272 -475 -321 -1108q0 -6 -2 -8z" />
<glyph unicode="E" horiz-adv-x="1914" d="M-51 1122q0 227 352 228q350 0 913 -197q2 8 9.5 32.5t13.5 41t16.5 37t24.5 31t31 10.5q39 0 71.5 -41t32.5 -80q0 -20 -12 -21q-14 0 -37 18.5t-27 18.5q-16 0 -30.5 -26.5t-18.5 -47.5q246 -84 500 -84q43 0 80 10.5t57.5 20.5t24.5 10q26 0 26 -18q0 -51 -77.5 -73.5 t-143.5 -22.5q-104 0 -246.5 28.5t-236.5 71.5q-10 -33 -61.5 -175t-75.5 -220q14 0 155.5 -3t192.5 -3q75 0 83 -27q4 -13 -19 -20q-19 -6 -52 -7q-59 0 -217 -6t-166 -6q-37 -133 -112.5 -291.5t-155.5 -247.5q416 -202 689 -202h3q104 0 190 58t86 159q0 47 -32.5 95 t-32.5 60q0 41 33 41q29 0 56.5 -53t27.5 -129q0 -145 -114 -226t-265 -81q-100 0 -234.5 39t-206 69.5t-224.5 101.5q-27 13 -42 19q-180 -168 -448 -168q-102 0 -182 39t-80 133.5t73.5 152.5t171.5 58q170 0 469 -137q100 131 248 506h-199q-40 3 -24 43q13 34 41 35 q18 1 46 1t64 -1q74 -2 95 -2q25 72 71.5 213t71.5 213q-521 153 -793 153h-4q-59 0 -116.5 -8t-122 -29.5t-104.5 -65.5t-40 -108q0 -96 87 -198.5t191.5 -171t191.5 -128t87 -77.5q0 -6 -8 -6q-33 0 -129 51q-94 49 -175 107.5t-154.5 134t-115.5 171t-42 197.5zM137 63 q0 -51 55.5 -91t119 -55t114.5 -15q174 0 309 135q-88 41 -230.5 75.5t-230.5 34.5q-137 0 -137 -84z" />
<glyph unicode="F" horiz-adv-x="1505" d="M31 1083q-3 25 -3 48q0 138 93 202q108 74 293 74q113 0 236.5 -25.5t191 -48t232.5 -88t218 -86.5q53 154 67.5 156t26 3t19.5 -1t17.5 -7t14.5 -9.5t12 -13.5t10 -14l11 -17q8 -12 11 -19q11 -29 11 -46q0 -11 -4 -17q-3 -4 -9 -4q-15 0 -47 28q-9 13 -18 13 q-18 0 -38 -49q-9 -21 -10 -32q277 -99 391 -99q56 0 74 24q18 25 45 15q14 -4 14 -16q0 -17 -30 -48q-52 -54 -148 -54q-137 0 -366 109q-125 -379 -134 -408q305 0 351 -20q14 -10 7 -18.5t-24 -10.5q-6 0 -59 -5t-138 -11t-159 -10q-89 -329 -154 -465 q-134 -282 -362 -367q-69 -19 -149 -19h-8q-85 1 -176 46t-138 123q-81 135 -81 282q0 13 1 27q2 73 24 77h2q15 0 21 -57q0 -31 13.5 -84t44 -122.5t74.5 -128t114 -95.5q57 -30 121 -30q16 0 32 2q66 6 130.5 50t117.5 121.5t96 151.5t85 180.5t62.5 162.5t47.5 140 q-246 0 -279 7q-18 10 -18 37.5t18 27.5l108 4q108 4 193 4q25 76 74 231.5t70 217.5q-231 100 -423 154.5t-396 54.5q-160 0 -259.5 -47t-99.5 -138q0 -117 124 -300t241 -265q41 -29 103.5 -63.5t80.5 -46.5q16 -10 12 -19.5t-24 -5.5q-213 47 -397.5 254t-204.5 403z" />
<glyph unicode="G" horiz-adv-x="1736" d="M31 422q0 160 68.5 306t185 255t264 188.5t313.5 116.5q136 30 268 30q28 0 56 -1q147 -8 240.5 -45t117.5 -76q10 -14 13.5 -25.5t-2 -22.5t-9.5 -16.5t-16 -17.5t-17 -18q-9 -10 -26 -41q-33 -55 -47 -56q-7 0 -13 9v2q0 14 14.5 43.5t14.5 49t-26 68.5 q-63 88 -265 107q-24 2 -52 2q-66 0 -147 -14q-116 -19 -257.5 -69t-273.5 -164.5t-208 -274.5q-82 -172 -82 -332q0 -201 147.5 -327t336.5 -126q305 0 498.5 130t324.5 405q-174 -10 -557 -10q-35 0 -55 20q-23 23 -23 49q0 28 43 49q41 19 71 19h5q12 0 14 -7q1 -3 -2 -5 q-10 -12 -13 -20.5t7 -12.5q273 -11 508 -11q117 0 225 3q37 0 43 -2q31 -8 31 -17q0 -11 -35 -23q-30 -10 -63 -14q-66 -8 -99 -8q-143 -528 -202 -655q-152 -322 -328 -459t-350 -137q-182 0 -285 127q-40 48 -40 86q0 8 2 15q8 33 44 -11l6 -8q35 -47 60.5 -74t76 -53.5 t105.5 -26.5q145 0 278.5 100.5t227.5 256t157.5 314.5t96.5 304q-86 -166 -325.5 -278.5t-483.5 -112.5q-258 0 -409.5 148.5t-151.5 367.5z" />
<glyph unicode="H" horiz-adv-x="1964" d="M-14 1153q12 139 132 201q108 55 268 55q18 0 37 -1q185 -7 386 -79q18 -6 215 -87t330 -121q73 -22 112 -22q33 0 43 15q18 25 46 15q14 -5 14 -16q0 -17 -31 -48q-27 -29 -115 -30h-10q-80 0 -98 16q-14 -41 -52 -157t-73 -219.5t-55 -170.5q369 0 608 -6l164 471 q-8 25 -9.5 44t7 43.5t14.5 40t14 30.5l9 16q18 51 91 58q9 1 17 1q40 0 40 -24q0 -8 -9 -17q-98 -240 -244 -667q113 -4 137 -11q12 -7 12 -12q0 -13 -73 -18q-35 -2 -90 -2q-125 -383 -148 -592q12 0 72.5 48t81.5 77q36 35 48 16q3 -4 3 -10q0 -26 -55 -78 q-137 -133 -193 -133h-2q-31 -1 -45 25q-12 21 -12 56q0 7 1 15q3 45 14 98.5t30.5 120t39 124.5t39 123t29.5 105q-279 -6 -618 -18q-150 -567 -485 -692q-70 -20 -153 -20h-4q-85 0 -176 45.5t-138 123.5q-80 133 -80 295v15q2 66 22 77q11 6 18 -18q4 -15 7 -39 q0 -31 13 -84t44 -121.5t75 -127.5q45 -58 115 -95q61 -32 129 -32q11 0 23 1q96 10 189.5 98.5t160 214.5t103.5 209.5t55 145.5q-72 0 -100 6q-18 8 -18.5 37t18.5 29l20 4q20 4 107 4q25 76 97.5 301t92.5 287q-43 18 -254 90.5t-274 91.5q-137 41 -257 50q-28 2 -54 2 q-86 0 -153 -22q-87 -30 -131 -92q-30 -43 -31 -107q1 -29 7 -63q20 -108 109 -249q72 -111 146.5 -178.5t165.5 -119t97 -55.5q16 -10 12.5 -20t-24.5 -4q-104 35 -253.5 145.5t-229.5 231.5q-134 204 -134 338q0 11 1 22z" />
<glyph unicode="I" horiz-adv-x="968" d="M18 -29q0 49 48.5 94.5t115.5 45.5q70 0 197 -56q86 104 168 281.5t129 317t103.5 324.5t68.5 224q-18 2 -85 15.5t-83 15.5q-62 12 -113 12q-109 0 -159 -57q-25 -28 -25 -65q0 -72 98 -175q30 -30 22 -43q-1 -2 -5 -2q-13 0 -56 37q-88 80 -106 158q-5 22 -5 43 q-1 50 31 87q44 52 141 76q50 12 108 11q54 0 116 -10q14 -2 72.5 -14.5t114.5 -21.5q54 -9 116 -17q48 -7 85 -7q11 1 21 1q44 2 56 18q13 18 22 2q3 -6 3 -12q0 -22 -35 -54q-8 -8 -18.5 -13t-25 -8t-25.5 -5.5t-31.5 -1t-31 1.5t-33 3t-30.5 4t-32.5 5t-26.5 4 q-4 -10 -49 -171t-78 -257t-90.5 -250t-127 -274.5t-147.5 -206.5q197 -88 359 -88q72 0 101.5 20.5t23 43t-20.5 50t-14 31.5q0 8 4 15.5t10 5.5q29 -12 41 -72q3 -15 3 -30q1 -45 -27 -87q-36 -57 -132 -57q-78 0 -197.5 32.5t-201.5 69.5q-66 -59 -154 -77q-38 -8 -71 -8 q-44 0 -80 14q-62 24 -62 77zM51 -4q0 -48 44 -72q26 -15 61 -14q23 0 51 6q68 16 125 74q-10 6 -33 13t-55.5 18.5t-65.5 16.5q-34 5 -62 6h-4q-26 0 -42 -12q-18 -12 -19 -36z" />
<glyph unicode="J" horiz-adv-x="1236" d="M10 -16q2 65 23 76q11 6 18 -17q5 -15 6 -39q0 -31 13.5 -84t44 -122.5t74.5 -128t115 -95.5q58 -30 124 -30q14 0 29 1q72 6 149.5 84t151 212t139.5 277.5t131.5 325t107.5 305t87 268t53 169.5q-90 8 -354 55q-115 18 -195 18q-171 0 -181 -85v-10q0 -103 222 -270 q59 -44 129 -89q13 -6 6 -15q-5 -7 -16 -4q-78 18 -145.5 53t-112.5 78.5t-77 92.5t-37 97q-2 17 -2 34q0 30 6 58q9 44 49 77t97.5 52.5t148.5 19.5t202 -25l85 -19q85 -19 140 -29.5t136 -22.5q55 -9 96 -9q20 0 37 2q53 6 69 29q18 24 33 10q7 -6 7 -15q0 -25 -46 -73 q-34 -35 -109 -35q-46 0 -108 13q-2 -4 -38 -126t-73 -239t-92 -273.5t-120.5 -313t-131.5 -277.5q-90 -166 -185 -276.5t-200 -166.5q-59 -31 -120 -31q-46 0 -94 18q-109 42 -212 185q-80 116 -80 293v17z" />
<glyph unicode="K" horiz-adv-x="1945" d="M0 1073q-3 26 -3 50q-1 97 51 159q64 78 167 98q79 16 172 16q27 0 56 -1q126 -6 217.5 -25.5t148.5 -40.5q18 -6 215 -87t330 -121q73 -22 112 -22q33 0 43 15q18 25 46 15q14 -5 14 -16q0 -17 -31 -48q-27 -29 -115 -30h-10q-80 0 -98 16q-20 -61 -70.5 -231.5 t-83.5 -268.5q145 57 342 184q84 55 173 127t146.5 124t108.5 102.5t60 56.5q-14 16 3 38.5t43 30.5t42 -2q6 -6 6 -16q0 -46 -132 -174q-161 -154 -390 -311q-221 -152 -426 -234l-39 -108q39 -37 136 -131.5t156.5 -148.5t141.5 -122.5t146.5 -103.5t113.5 -39h6 q40 0 64 50q26 54 26 119.5t-2 117.5q-6 50 13 45q20 -5 27 -37q1 -4 1 -8q3 -36 3 -69q0 -130 -45 -198q-56 -86 -132 -86q-106 0 -297.5 162t-384.5 383q-193 -479 -428 -567q-70 -20 -153 -20h-4q-85 0 -176 45.5t-138 123.5q-80 133 -80 295v15q2 66 23 77q11 6 18 -18 q4 -15 6 -39q0 -31 13.5 -84t44 -121.5t74.5 -127t115 -95.5q61 -32 130 -32q11 0 23 1q256 23 477 609q-110 110 -124 130q-23 35 7 35q28 -26 81 -26q38 0 89 14q41 125 98.5 322.5t75.5 251.5q-418 178 -534 200q-131 27 -257 27t-224.5 -26.5t-141.5 -90.5 q-23 -35 -23 -79q0 -37 17 -81q53 -133 114.5 -234t125 -161.5t111.5 -95.5t106.5 -65.5t76.5 -45.5q16 -10 12.5 -19t-24.5 -5q-207 45 -393 260t-209 397z" />
<glyph unicode="L" horiz-adv-x="1634" d="M51 12q0 84 62.5 138.5t148.5 54.5q137 0 402 -123q88 121 213 455q-139 0 -220.5 69.5t-81.5 202.5q0 53 15.5 94t46.5 41q10 0 10 -18q0 -10 -4 -42t-4 -44q0 -109 61.5 -189t188.5 -80q6 16 34.5 100.5t61.5 175.5t70 185t75.5 154.5t65.5 60.5q29 0 61.5 -15 t32.5 -40q0 -18 -16 -18q-4 0 -8 8t-11 8q-33 0 -94 -129t-126.5 -306t-67.5 -182q205 47 325 275q108 204 108 404q0 23 -1 46q-2 20 -16.5 30.5t-14.5 21.5q0 26 40 26h3q70 0 74 -78v-13q-1 -91 -27 -201q-28 -118 -87.5 -239.5t-169 -209.5t-249.5 -103 q-37 -117 -107.5 -264t-127.5 -213q360 -182 594 -182q90 0 162.5 52t72.5 143q0 45 -26.5 88t-26.5 53q0 14 7 27.5t20 9.5q25 -10 48 -70.5t23 -93.5q0 -131 -95 -205t-230 -74q-29 0 -60.5 4.5t-59.5 9.5t-65 16t-61.5 18.5t-65.5 25t-61.5 24.5t-63.5 27.5t-57 27.5 t-59 28.5t-54 25.5q-153 -151 -380 -151h-3q-90 0 -157.5 35.5t-67.5 117.5zM111 55q0 -72 71.5 -109.5t175.5 -37.5q148 0 265 123q-33 16 -108 39.5t-170 45.5q-60 14 -110 15q-29 0 -55 -5q-70 -13 -69 -71z" />
<glyph unicode="M" horiz-adv-x="1972" d="M47 1016q-3 25 -3 49q0 65 24 115q34 68 96 100q62 33 152 45q64 8 126 8q26 0 51 -1q87 -5 188 -21.5t171 -33.5t137 -36q38 -10 38 -55q0 -40 -17 -101q-99 -461 -99 -701q0 -147 37 -211q25 -43 67 -43q134 0 439 433q113 162 207 330t120.5 237.5t53.5 86t44.5 -13.5 t23.5 -91q9 -85 9 -171q0 -200 -50 -410q-72 -300 -220 -560q113 88 236 135q39 16 54 16q8 0 8 -6q0 -16 -56 -53q-35 -25 -76 -58.5t-72.5 -62t-65.5 -59t-61.5 -51t-53 -32t-48 -8.5t-39.5 24q-20 23 7.5 49t66.5 49t41 31q35 82 58.5 141t53 144t49 154t38 155t27 160.5 t8.5 160.5t-13 166q-14 -20 -62 -104t-111.5 -188.5t-127.5 -194.5q-369 -525 -540 -525q-70 0 -107 87q-40 94 -40 270q0 204 54 518q22 125 48 235q-96 -131 -200 -299t-221.5 -389t-192.5 -452.5t-75 -409.5v-2q-7 -32 -19 -32q-10 0 -23 23q-26 45 -27 105v11 q0 134 92 369q96 245 228 479.5t247 416.5t162 236l-68 16q-68 16 -115 26.5t-126.5 21.5t-147.5 11h-10q-86 1 -163 -31q-81 -34 -122 -94q-38 -55 -38 -120v-10q3 -70 87 -154t244 -158q42 -17 42 -35q0 -6 -14 -6q-18 0 -57 10q-150 37 -247 145.5t-107 213.5z" />
<glyph unicode="N" horiz-adv-x="1978" d="M33 248q4 73 26 76h2q15 0 19 -56q0 -41 22.5 -113.5t65.5 -157.5t125 -141q69 -47 151 -48q16 0 33 2q84 8 169 97t151.5 211t135 295t110.5 302t89.5 280.5t59.5 188.5q-41 12 -179.5 42.5t-181.5 37.5q-110 18 -188 18q-171 0 -186 -86q-2 -9 -1 -18q0 -99 185 -252 q72 -59 164 -117q10 -6 7 -13.5t-17 -4.5q-139 33 -239 113q-98 81 -122 167q-10 35 -10 70q0 49 20 94q34 79 159 105q51 11 114 10q93 0 211 -23q129 -29 321 -80q82 -22 99 -51q12 -21 -47 -24q-16 -2 -37 -1q-6 -18 -50.5 -159.5t-86.5 -269.5t-102 -285.5t-107 -247.5 q-90 -166 -184 -277q-94 -112 -198 -166q-58 -31 -119 -31q-47 0 -95 18q-110 42 -211 186q-78 111 -78 284v25zM1255 1061q0 35 30 49q8 3 14 3q23 0 33 -41q3 -11 3 -25q62 -807 182 -1002q32 -51 65 -51q80 0 173 287q18 56 37 122q40 150 62 370q17 172 17 279 q0 30 -1 54q-37 57 -58 102q-22 50 -22 93q0 28 9 53q10 26 24.5 26t34.5 -26q23 -27 75 -166q93 -241 156 -264q14 -10 14 -17q0 -6 -12 -9q-18 -4 -39 7q-49 23 -125 123q-25 -401 -94 -657q-128 -464 -255 -464q-6 0 -12 1q-131 24 -230 501q-81 388 -81 652z" />
<glyph unicode="O" horiz-adv-x="1630" d="M16 401q0 344 316 674q-104 -37 -148 -61q-69 -34 -91 -34q-10 0 -9 7q0 22 84 66q123 65 252 104q236 201 516 238q48 6 87 6q108 0 142 -47q10 -15 9 -33q0 -44 -54 -109q494 -66 494 -510q0 -339 -291 -581q-245 -204 -573 -248q-77 -10 -148 -10q-233 0 -391 114 q-195 142 -195 418v6zM125 403q6 -307 250 -428q124 -62 274 -62q111 0 235 34q294 80 474 299q164 200 164 454q0 184 -120 316.5t-308 152.5q-14 -18 -51 -57t-122 -107.5t-161 -107.5q-95 -47 -115 -47q-5 0 -5.5 3.5t5.5 10.5q24 29 107 84q160 106 278 226q-49 3 -99 3 q-218 0 -450 -57q-186 -170 -273 -356q-83 -178 -83 -346v-15zM582 1198q145 28 311 28q81 0 168 -7q24 51 24 79q-1 17 -9 24q-17 15 -72 15q-21 0 -48 -2q-205 -20 -374 -137z" />
<glyph unicode="P" horiz-adv-x="1748" d="M14 188q2 66 23 78q11 6 18 -18q4 -15 6 -39q0 -31 13.5 -84t44.5 -122t75 -127t114 -95q61 -32 130 -32q11 0 23 1q238 23 504 729l-13 4q-37 24 -26 41q6 9 26 4q6 -2 29 -2q45 123 89 257.5t81 255t45 147.5q15 43 60 43q40 1 38 -36q0 -5 -2 -11q-88 -326 -219 -656 q559 36 720 237q53 66 53 135q0 70 -54 143q-110 151 -365 217q-130 33 -271 33q-40 0 -81 -3q-335 -21 -516 -149q-115 -81 -115 -174q0 -52 36 -109q38 -61 118 -121q37 -28 37 -38q0 -5 -10 -5h-1q-41 3 -81 31q-194 142 -194 270q0 54 35 106q101 149 434 213 q138 27 292 31q34 1 67 1q435 0 644 -172q124 -102 124 -227q0 -34 -9 -69q-43 -170 -269 -281q-242 -118 -608 -118h-6q-76 -182 -153 -326.5t-177 -270.5q-99 -126 -197 -177q-55 -29 -116 -29q-46 0 -96 17q-114 39 -220 188q-80 116 -80 292v17z" />
<glyph unicode="Q" horiz-adv-x="1630" d="M6 -350q0 86 57.5 148.5t141.5 62.5q106 0 248.5 -55.5t260 -121t270.5 -121t280 -55.5q92 0 164.5 52.5t72.5 142.5q0 23 -2 40t-6 30.5t-7 20.5t-10.5 20.5t-9.5 17.5q-13 30 -1 47q3 5 10 2q25 -10 48 -70.5t23 -93.5q0 -129 -96 -203.5t-229 -74.5q-100 0 -226.5 42 t-229.5 95t-236.5 108.5t-237.5 73.5q-42 8 -81 8q-47 0 -89 -12q-76 -22 -76 -82q0 -50 -21 -78q-12 -15 -16 16q-2 15 -2 40zM16 401q0 344 316 674q-104 -37 -148 -61q-69 -34 -91 -34q-9 0 -9 7q0 22 84 66q123 65 252 104q236 201 516 238q48 6 87 6q107 0 142 -47 q10 -15 10 -33q0 -44 -55 -109q494 -66 494 -510q0 -166 -75 -311t-190.5 -242.5t-257 -168t-273.5 -102.5t-240 -32q-250 0 -407 156q-155 154 -155 393v6zM125 403q4 -219 137 -360t344 -141q86 0 182.5 20.5t201 59t198.5 105.5t169 152t120 204.5t45 256.5 q0 184 -120 316.5t-308 152.5q-14 -18 -51 -57t-122 -107.5t-161 -107.5q-95 -47 -115 -47q-6 0 -6 3.5t6 10.5q24 29 107 84q160 106 278 226q-49 3 -99 3q-218 0 -450 -57q-186 -170 -273 -356q-83 -178 -83 -346v-15zM582 1198q145 28 311 28q81 0 168 -7q24 51 24 79 q0 16 -9 24q-17 15 -72 15q-21 0 -48 -2q-205 -20 -374 -137z" />
<glyph unicode="R" horiz-adv-x="1947" d="M14 188q2 66 23 78q11 6 18 -18q4 -15 6 -39q0 -31 13.5 -84t44.5 -122t75 -127t114 -95q61 -32 130 -32q11 0 23 1q238 23 497 713l-34 43q-9 11 -9 29q0 17 8 40q13 39 33 15l35 -41q57 160 128 390t77 247q15 43 60 43q40 1 38 -36q0 -6 -2 -11q-88 -326 -219 -656 q559 36 720 237q53 66 53 135q0 70 -54 143q-110 151 -365 217q-130 33 -271 33q-40 0 -81 -3q-335 -21 -516 -149q-115 -81 -115 -174q0 -52 36 -109q38 -61 118 -121q37 -28 37 -38q0 -5 -10 -5h-1q-41 3 -81 31q-194 142 -194 270q0 54 35 106q101 149 434 213 q138 27 292 31q34 1 67 1q435 0 644 -172q124 -102 124 -227q0 -34 -9 -69q-43 -170 -269 -281q-242 -118 -608 -118h-6v-2q518 -631 739 -651h6q40 0 64 50q26 54 26 119.5t-2 117.5q-6 50 13 45q20 -5 27 -37q1 -4 1 -8q3 -36 3 -69q0 -130 -45 -198q-56 -86 -132 -86 q-225 0 -737 633q-74 -170 -151 -303t-172 -242.5t-189 -151.5q-47 -21 -97.5 -21t-104.5 21q-108 42 -208 185q-80 116 -80 292v17z" />
<glyph unicode="S" horiz-adv-x="942" d="M-18 692q0 150 82.5 278t215 213t280.5 140.5t298 73.5q66 8 128 11q17 1 34 0q46 0 100 -5q74 -8 127 -31.5t90 -73t37 -120.5q0 -121 -114.5 -234t-268.5 -113q-29 0 -29 18q4 21 35 23q104 0 198.5 79t94.5 196q0 96 -68.5 149.5t-162.5 57.5q-31 1 -63 1 q-64 0 -132 -5q-195 -25 -365.5 -99.5t-287.5 -209t-117 -298.5q0 -98 55.5 -168.5t138.5 -103.5t181 -63.5t185 -51t150.5 -63.5t74.5 -105q2 -12 2 -24q0 -76 -76 -150q-88 -86 -240.5 -140t-316.5 -54q-123 0 -167 45q-42 43 -42 106v6q0 76 55 76q6 0 11 -13t10.5 -34.5 t13.5 -36.5q33 -53 86 -69q42 -12 112 -12q18 0 38 1q152 6 294 71q127 58 127 141q0 10 -2 20q-10 68 -98 113t-203.5 76.5t-229.5 70.5t-192.5 116.5t-78.5 194.5z" />
<glyph unicode="T" horiz-adv-x="1433" d="M31 1108v5q0 129 98 211q100 83 289 83q113 0 236.5 -25.5t189 -48t231.5 -89t217 -85.5q53 154 67.5 156t26 3t19.5 -1t17.5 -7t14.5 -9.5t12 -13.5t10 -14l11 -17q8 -12 11 -19q11 -29 11 -46q0 -11 -4 -17q-3 -4 -9 -4q-15 0 -47 28q-9 13 -18 13q-18 0 -38 -49 q-9 -21 -10 -32q174 -74 302 -96q43 -7 76 -8q64 0 87 29q18 25 45 15q14 -4 14 -16q0 -17 -30 -48q-48 -50 -139 -50q-137 0 -373 113q-25 -72 -68 -223.5t-77 -266t-91 -263t-114.5 -252t-142.5 -193.5t-181 -125q-69 -19 -149 -19h-8q-85 1 -176 46t-138 123 q-81 135 -81 282q0 13 1 27q2 73 24 77h2q15 0 21 -57q0 -31 13.5 -84t44 -122.5t74.5 -128t114 -95.5q57 -30 121 -30q16 0 32 2q72 6 141.5 63t131 158.5t115 209t104.5 251t85 246t74 232.5t54 175q-229 100 -416.5 154.5t-388.5 54.5q-191 -1 -283 -59q-91 -57 -90 -152 q0 -99 80 -238q78 -137 223 -260q59 -53 146.5 -98t99.5 -53q16 -10 12 -19.5t-24 -5.5q-168 37 -289 141q-137 119 -217 254q-94 154 -96 287z" />
<glyph unicode="U" horiz-adv-x="1839" d="M29 532q0 172 93 327t236.5 255t306 158.5t308.5 58.5q205 0 205 -155q0 -57 -26 -139.5t-54.5 -146t-106.5 -227.5q-21 -43 -30 -65q-119 -252 -148 -330q-45 -123 -45 -185q0 -63 47 -63q8 0 18 2q56 12 160 91q203 154 494 548t348 562q12 14 32.5 25.5t42 13.5 t37 -18.5t15.5 -65.5q-39 -59 -162 -379t-164 -461q-27 -96 -40 -153.5t-19 -109.5q-2 -17 -2 -31q0 -28 8 -44q12 -23 43 -23q45 0 148 84q42 37 43 13q-1 -27 -19 -43q-166 -150 -266 -150q-27 0 -42 15q-16 16 -18 51q-1 12 0 25q0 24 2 48q4 38 19.5 101t31 116.5 t40.5 137.5q94 307 209 577q-145 -238 -393 -515t-410 -402q-149 -113 -229 -113q-49 0 -72 43q-10 18 -12.5 44t4 61.5t13.5 67.5t25.5 79t29.5 78t34.5 84t34 74.5t35 74t28.5 60.5q2 6 26 53l38 78q16 31 41.5 87t43 101t35 97.5t26.5 97.5t9 82q0 57 -30.5 76.5 t-108.5 19.5q-186 0 -378.5 -108.5t-320.5 -290t-128 -371.5q0 -88 37.5 -143.5t115.5 -55.5q189 0 340 169q40 45 45 38q3 -4 4 -16q-20 -88 -128.5 -164t-258.5 -76q-98 0 -169.5 69.5t-71.5 200.5z" />
<glyph unicode="V" horiz-adv-x="1443" d="M25 987q0 195 141 303.5t358 108.5q125 0 217.5 -44t145.5 -116t85 -175q32 -104 41 -206q6 -71 6 -152q0 -36 -1 -75q-4 -125 -14.5 -220.5t-22.5 -200.5q-2 -9 -2 -13q4 6 95 156.5t162 261t177.5 267t208.5 276.5t186 185q92 71 154 71q25 0 44 -11q20 -12 20 -24 q0 -4 -2 -8q-3 -3 -7 -5l-2 -2q-6 -2 -25.5 -5t-39 -7t-57.5 -26.5t-81 -61.5q-164 -145 -367.5 -432t-328.5 -504q-110 -191 -110 -209q0 -2 1 -2h1q10 -3 10 -13q0 -20 -35 -67q-51 -69 -86 -70q-37 1 -57 23q-8 9 -9 22q0 19 17 47q23 27 51.5 220.5t28.5 304.5 q0 119 -7.5 214t-33 203.5t-69.5 181t-124 121t-188 48.5q-170 0 -278.5 -97.5t-108.5 -285.5q0 -127 63.5 -208t155.5 -81q23 0 34 -6t2 -13.5t-36 -7.5q-139 0 -226 94.5t-87 239.5z" />
<glyph unicode="W" horiz-adv-x="2402" d="M33 741q0 137 95 265.5t237.5 211t303 133t298.5 50.5q350 0 350 -309q0 -63 -11.5 -133t-41 -165.5t-44 -137.5t-60.5 -164.5t-52 -137.5q-68 -188 -80 -293q432 545 631 768q126 142 144 155q25 17 53 -13q4 -4 12 -13q9 -9 9 -32q0 -36 -22 -107q-18 -59 -28 -97 t-34 -123t-36 -144.5t-28.5 -141.5t-18.5 -138q-1 -19 0 -37q0 -36 2 -72q4 -54 24.5 -80.5t55.5 -26.5q74 0 190.5 102.5t227 257t189.5 359.5t79 387q0 193 -106 231q-20 8 -27.5 18.5t2 18.5t27.5 8q84 0 142 -68.5t58 -197.5q0 -182 -94 -402t-225 -393.5t-273.5 -291 t-236.5 -117.5q-51 0 -82 37q-31 36 -38 106q-5 54 -5 112v32q2 74 19.5 175t33 175t37 167t27.5 128q-152 -121 -320 -330t-253 -342t-150 -248v2q-35 -70 -73 -85q-11 -4 -21 -4q-22 0 -34 24q-8 17 -8 41q0 25 9 57q6 20 96 290.5t152.5 520.5t62.5 408q0 117 -52 167 t-175 50q-78 0 -184.5 -24.5t-224.5 -78t-217 -124t-164.5 -174t-65.5 -218.5q0 -123 99 -207t226 -84q113 0 162 35q31 22 38 4q6 -14 -28 -34q-60 -35 -198 -35h-29q-137 4 -244.5 96t-107.5 231z" />
<glyph unicode="X" horiz-adv-x="1495" d="M16 1042q49 172 151.5 262.5t199.5 90.5q113 0 207 -86t151 -246l135 -365q371 303 531 471q63 66 82 129q2 6 3 16.5t1 18.5t4 14.5t10 6.5q31 0 31 -60q0 -113 -136 -225q-297 -246 -507 -430q248 -553 419 -616q11 -4 22 -4q38 0 70 49q42 63 58 137q10 46 26 24 q11 -15 7 -34q-37 -135 -114 -200q-61 -52 -110 -52q-13 0 -24 4q-168 47 -426 628l-248 -221q-135 -123 -292.5 -301t-192.5 -246q-19 -36 -38 -36q-7 0 -13 4q-11 7 -11 20q0 11 8 27q123 236 486 571q102 96 278 242q-113 332 -139 395q-47 127 -125 212t-155 85 q-203 0 -263 -237q-23 -81 -22 -144q0 -24 2 -45q12 -78 32.5 -118t43.5 -50q8 -4 10 -10t-2 -11t-14 -5q-78 1 -123 109q-26 63 -26 130q0 47 13 96zM872 651l2 2h-2v-2z" />
<glyph unicode="Y" horiz-adv-x="1955" d="M88 561q0 141 102.5 296t252 272.5t322.5 194.5t308 77q92 0 157.5 -39t65.5 -125q0 -94 -64.5 -254t-142 -305.5t-142 -310t-64.5 -265.5q0 -67 46 -67h1q94 0 298 209t362.5 415.5t234.5 325.5t162 315q16 39 51 39q31 0 43 -32.5t12 -67.5q0 -207 -186.5 -641 t-345.5 -702q-66 -111 -153 -223.5t-199.5 -229.5t-243.5 -189.5t-250 -72.5q-111 0 -201 63.5t-90 167.5q0 39 14.5 98.5t38.5 65.5q12 -8 15.5 -31.5t0 -60.5t-3.5 -39q0 -90 76 -140t172 -50q106 0 221 68.5t217.5 181t175 211t136.5 202.5q74 119 142.5 269.5t108.5 256 t106.5 295t97.5 269.5q-76 -127 -292 -381t-470 -483.5t-371 -229.5q-66 0 -66 90q0 115 72 294t157 336t156.5 331t71.5 282q0 61 -37 81t-104 20q-133 0 -288 -75t-282 -189.5t-211.5 -264t-84.5 -284.5q0 -201 202 -201q51 0 96.5 13t84 42t59 46.5t52.5 53t34 37.5 q31 31 31 0q0 -23 -29 -59q-57 -82 -158.5 -135t-202.5 -53q-119 0 -196.5 81.5t-77.5 200.5z" />
<glyph unicode="Z" horiz-adv-x="1341" d="M4 -33q14 88 154.5 249t326 328t364.5 325.5t287 270.5q85 89 84 122q0 9 -6 14q-180 19 -314 19q-29 0 -56 -1q-401 -8 -469 -61q6 -2 15 -15.5t9 -25.5q-3 -19 -17 -19q-18 0 -54 33q-29 27 -47 56q-14 20 -7 37.5t29 19.5q177 29 497 31h97q248 0 385 -7q39 -6 41 -64 v-8q0 -52 -25 -81q-55 -74 -194 -201t-293 -260t-304.5 -270t-255 -264t-118.5 -209q74 12 169 23q94 11 272 29q138 14 271 13q38 0 76 -1q169 -5 277 -36q41 -12 48 -38.5t-12.5 -57.5t-45 -57.5t-49.5 -40.5q-14 -9 -19 -9q-4 0 -4 5l6 14q55 55 58.5 90t-29.5 48.5 t-92 13.5q-315 0 -809 -60q-43 -4 -95.5 -14t-78 -14.5t-27.5 -2.5q-45 59 -45 74v2z" />
<glyph unicode="[" horiz-adv-x="1198" d="M41 37q0 160 263 638t419 658q59 68 133 68h260q35 0 12 -41q-6 -12 -15 -14.5t-48 -2.5h-168q-63 0 -151.5 -117.5t-264.5 -422.5q-328 -567 -327 -717q0 -63 188 -63q25 0 94.5 3t93.5 3q21 0 5 -30q-15 -26 -35 -26h-262h-18h-26q-10 0 -28.5 1t-29.5 2t-27.5 4.5 t-26.5 8.5t-20.5 11t-15.5 15.5t-5 21.5z" />
<glyph unicode="\" horiz-adv-x="1236" d="M92.5 1402.5q9.5 27.5 44.5 27.5q31 0 273.5 -304.5t497.5 -671t304 -507.5q47 -137 -12 -137q-12 0 -17 4t-4 12t-3.5 29.5t-12.5 46.5q-63 172 -421.5 652t-635.5 798q-23 23 -13.5 50.5z" />
<glyph unicode="]" horiz-adv-x="1138" d="M55 6q6 12 15.5 14.5t48.5 2.5h168q63 0 151 117.5t264 422.5q328 567 328 717q0 63 -188 63q-25 0 -94.5 -3t-94.5 -3q-21 0 -4 30q15 26 35 26h262h18h26q9 0 27.5 -1t30 -2t28 -4.5t26.5 -8.5t20.5 -11t15.5 -15.5t5 -21.5q0 -160 -263.5 -638t-418.5 -658 q-59 -68 -133 -68h-260q-36 0 -13 41z" />
<glyph unicode="^" horiz-adv-x="684" d="M103.5 930q-5.5 4 5.5 18q12 18 112.5 105.5t120.5 91.5q14 -4 105.5 -83t119.5 -108q16 -16 6 -23q-5 -3 -14 1q-127 70 -227 147q-25 -20 -109 -79.5t-102 -67.5q-12 -6 -17.5 -2z" />
<glyph unicode="_" horiz-adv-x="671" d="M-4 2l6 6h692l4 -6v-33l-4 -4h-692l-6 4v33z" />
<glyph unicode="`" horiz-adv-x="727" d="M165.5 1173.5q4.5 22.5 27 38t38.5 2.5q41 -33 117 -81t129.5 -86.5t71.5 -69.5q21 -34 -101 22q-106 48 -264 136q-23 16 -18.5 38.5z" />
<glyph unicode="a" horiz-adv-x="673" d="M12 68q0 94 56.5 254.5t138.5 290.5t143 130h6l23 17q18 20 57 20q31 0 86.5 -16t61.5 -16q8 0 21 16t32 16q51 0 51 -45q0 -18 -7 -40.5t-20.5 -52.5t-15.5 -36q-2 -4 -19.5 -12t-19.5 -14q-45 -127 -79.5 -271.5t-34.5 -177.5q0 -51 28.5 -51t70.5 35t72.5 69.5 t32.5 34.5q4 0 4 -8q0 -31 -20 -47q-2 -2 -18.5 -17.5t-26.5 -23.5t-29.5 -25.5t-34 -28t-35 -24.5t-36 -21.5t-31.5 -13.5t-31 -6q-43 0 -51 51q0 86 68 318q-274 -379 -394 -379q-49 0 -49 74zM106 125q0 -35 21 -35q43 0 152.5 125t144.5 178q51 82 94 177.5t43 125.5 q0 12 -10 13h-6q-12 0 -43 4t-49 4q-29 0 -62 -8q-51 -14 -168 -242.5t-117 -341.5z" />
<glyph unicode="b" horiz-adv-x="598" d="M-4 80q0 31 49 156q6 16 19.5 24t15.5 14q221 575 350 1018l15 13q15 12 37 24t36 12q20 0 21 -30q-23 -84 -144 -412t-198 -516q78 117 205.5 261t191.5 144q41 0 41 -75v-15q-2 -41 -39 -184q45 23 61 23q6 0 7 -5q0 -10 -26 -30.5t-52 -30.5q-80 -264 -156 -348 q-29 -31 -117 -85t-108 -54q-84 0 -125 39l-8 -19q-3 -6 -13 -6q-18 0 -40.5 24.5t-22.5 57.5zM119 104q49 -55 100 -55q84 0 156.5 125t107.5 248q-242 -127 -311 -203q-12 -25 -29.5 -63.5t-23.5 -51.5zM186 270q124 101 314 197q33 86 37 178q0 43 -21 43 q-68 0 -330 -418z" />
<glyph unicode="c" horiz-adv-x="473" d="M8 129q0 141 92.5 340t159.5 229q31 12 66.5 31t61.5 29t56 10q96 0 97 -96q0 -21 -2 -33q-6 -35 -24.5 -56.5t-35.5 -21.5q-25 0 -24 37q0 12 8 45t8 47q0 33 -35 33q-25 0 -77 -34t-78 -60q-39 -41 -113 -224.5t-74 -283.5q0 -76 60 -76q76 0 151.5 58.5t122.5 119 t49 60.5q10 -4 10 -15q0 -31 -49 -97.5t-136 -126.5t-169 -60q-125 0 -125 145z" />
<glyph unicode="d" horiz-adv-x="694" d="M10 47q0 88 61.5 255t146.5 303t142 136h9q14 0 33.5 15.5t41.5 15.5q31 0 87.5 -16.5t60.5 -16.5q2 0 2 2q147 397 151 410q-23 0 -22 25q0 57 61 149q8 16 33 16q26 0 55 -14q6 -3 7 -18q0 -33 -32 -122t-88.5 -231.5t-86.5 -232.5q2 2 4 2q8 0 17 -14.5t9 -26.5 t-20 -12q-27 0 -29 6q-41 -92 -103.5 -299t-62.5 -254t27 -47q31 0 72 37t72.5 72.5t37.5 35.5t6 -10q0 -6 -3 -16.5t-6 -17.5t-5 -7q-47 -47 -131 -107.5t-131 -60.5q-39 0 -39 43q0 111 78 338q-88 -125 -214 -262t-198 -137q-43 0 -43 61zM106 121q0 -33 20.5 -33 t59.5 33t72 69.5t72 80.5t41 48q55 61 101 144.5t76 155t32 75.5q0 23 -121 23q-35 0 -51 -4q-45 -12 -173.5 -248t-128.5 -344z" />
<glyph unicode="e" horiz-adv-x="518" d="M41 117q0 23 6 53q14 78 38 151.5t26 90.5q-31 8 -31 32q0 23 35 23h14q82 164 94 186q57 109 219 109q70 0 97 -125q12 -63 12 -102q0 -45 -31 -77t-80 -45.5t-88 -18.5t-73 -5q-20 0 -46 1t-28 1q-68 -172 -68 -270q0 -82 62 -82q43 0 100 54t100 108.5t52 54.5 q14 0 14 -16q0 -57 -112.5 -158.5t-176.5 -101.5q-51 0 -93 31.5t-42 105.5zM223 449q4 0 33 -2.5t49 -2.5q84 0 121 19t39 76q0 51 -10.5 88t-23.5 51t-28 14q-41 0 -97 -88t-83 -155z" />
<glyph unicode="f" horiz-adv-x="430" d="M-369 -260q0 57 17.5 106.5t32.5 49.5q8 0 10 -13q-4 -41 -4 -57q0 -94 36.5 -151.5t90.5 -57.5q49 0 100 52t94 159q57 143 154.5 458.5t124.5 418.5q-49 -8 -137 -9q-47 0 -48 19q0 14 27 33.5t43 19.5h131q94 334 129 410q18 41 40 71.5t47.5 49t48 29.5t54 16.5 t53 7.5t59 3t57.5 3q32 -6 32 -45q0 -31 -13 -58.5t-28 -27.5q-2 0 -12 21.5t-33.5 42t-58.5 20.5q-98 0 -143 -115q-90 -231 -140 -428h201q57 0 57 -12q0 -20 -94 -31.5t-180 -11.5q-8 -20 -50 -163.5t-94.5 -321t-78.5 -261.5q-68 -213 -167.5 -302t-199.5 -89 q-158 0 -158 164z" />
<glyph unicode="g" horiz-adv-x="600" d="M-150 -608.5q0 108.5 100.5 304t168.5 271.5q6 8 41 21q-10 6 -26.5 15t-28 14.5t-19.5 13.5t-8 16q0 23 19.5 42.5t39.5 19.5h8q125 -47 236 -207t111 -299q-1 -29 -3 -41q-18 -104 -181 -191.5t-308 -87.5q-150 0 -150 108.5zM-92 -582q0 -84 96 -84q104 0 244.5 70 t144.5 131v27q0 109 -58.5 217t-139.5 180q-4 -6 -50.5 -71.5t-78 -114.5t-72.5 -120t-63.5 -131.5t-22.5 -103.5zM113 270q0 176 109.5 340t230.5 164q10 0 30 -4q0 74 54 74q59 0 59 -94q0 -14 -2 -49t-2 -52l9 -6q9 -6 15.5 -11t12.5 -13.5t6 -16.5q0 -6 -2 -10 q-6 -8 -29 -8h-18q-2 -12 -9.5 -50t-13.5 -70t-10 -42q-51 -131 -142.5 -210t-189.5 -79q-57 0 -82.5 33t-25.5 104zM199 256q0 -63 51 -63q76 0 168 121.5t92 277.5q-23 4 -27 64.5t-28 60.5q-63 0 -118.5 -82t-86.5 -162q-51 -139 -51 -217z" />
<glyph unicode="h" horiz-adv-x="634" d="M16 8q0 18 11 41q55 143 106 297t109.5 343.5t95.5 299.5q6 18 6 37q0 8 -2 15.5t-2 11.5q0 8 6 26q47 131 80 173t100 42q27 0 31 -18q-223 -451 -362 -959q305 477 460 478q43 0 43 -29q0 -18 -14 -41q-111 -178 -206 -396t-95 -339q0 -29 16 -29q6 0 36 18.5t36 18.5 q10 0 10 -12q0 -25 -39 -52.5t-75 -27.5q-51 0 -52 76q0 88 57.5 248.5t115 292.5t57.5 149q0 4 -2 4q-8 0 -37 -31q-129 -145 -217 -283.5t-118 -212t-61.5 -117.5t-74.5 -44q-18 0 -19 20z" />
<glyph unicode="i" horiz-adv-x="344" d="M37 25q0 18 8 43q23 63 46.5 130.5t35.5 104.5t25.5 76t19.5 58.5t11 39t7.5 29.5t2.5 20q0 8 -3.5 15.5t-3.5 11.5q0 8 7 27q45 129 79.5 172t102.5 43q27 -1 31 -19q-4 -6 -28 -51t-40 -78t-45 -96.5t-51.5 -120.5t-47 -137t-42.5 -160q-2 -6 -2 -16q0 -25 20 -25 q12 0 66.5 31t70.5 31q14 0 17 -9q0 -25 -104.5 -91t-143.5 -66t-39 37zM336 987q0 43 63.5 94.5t110.5 51.5q9 -1 12 -7q0 -27 -39 -67.5t-49 -63.5q-27 -68 -57 -75q-41 0 -41 67z" />
<glyph unicode="j" horiz-adv-x="411" d="M-334 -354q0 49 13.5 90t25.5 41q8 0 10 -13v-20q0 -111 41 -180.5t101 -69.5q47 0 92 51.5t78 155.5q121 387 223 788q4 16 4 35q0 8 -3 16.5t-3 14.5q0 14 4 25q33 127 65.5 171t98.5 44q27 -1 33 -19q-145 -348 -277 -928q-49 -213 -140 -302t-192 -89 q-174 0 -174 189zM352 1010q0 43 67.5 88t106.5 45q29 0 29 -19t-37 -39q-25 -14 -43 -41.5t-26.5 -53t-22.5 -45t-33 -19.5q-14 0 -26.5 31.5t-14.5 52.5z" />
<glyph unicode="k" horiz-adv-x="550" d="M-2 -25q0 8 10 39q57 143 110.5 302t119 367t98.5 306q8 25 8 37q0 8 -3 15.5t-3 11.5q0 8 6 26q47 131 80 173t100 42q29 0 31 -18q-123 -248 -199.5 -444.5t-136.5 -434.5l94 84q94 84 196.5 173t117.5 102q55 41 84 41q12 0 12 -9q0 -22 -55 -65q-127 -74 -241 -198 t-114 -163q0 -74 63.5 -184t112.5 -151q39 -33 39 -54q0 -12 -18 -12q-41 0 -94.5 56.5t-91 114.5t-79.5 134l-42 76q-88 -244 -92 -307q0 -14 -38 -46t-61 -32q-14 0 -14 18z" />
<glyph unicode="l" horiz-adv-x="366" d="M35 25q0 20 8 43q53 145 99 288.5t105.5 341t88.5 291.5q6 18 6 37q0 8 -3 15.5t-3 13.5t6 24q41 129 76 172t102 43q29 0 31 -18q-113 -233 -229.5 -564t-171.5 -579q-2 -6 -3 -16q0 -25 21 -25q12 0 66.5 31t68.5 31q12 0 19 -9q0 -25 -102.5 -91t-145.5 -66 q-39 0 -39 37z" />
<glyph unicode="m" horiz-adv-x="999" d="M-4 -18q0 14 9 36.5t20.5 45t13.5 26.5q33 80 135 399q8 25 8 37q0 8 -3 15.5t-3 11.5q0 8 6 27q45 129 80 172t100 43q27 0 31 -19q-168 -344 -200 -491q341 544 517 544h1q41 0 41 -26q0 -18 -15 -41q-178 -301 -225 -531q100 199 191.5 308.5t271.5 240.5 q39 31 102 31q41 0 41 -29q0 -14 -12 -39q-248 -438 -299 -706q-6 -20 -6 -41q0 -29 18 -29q8 0 42 19.5t40 19.5q10 0 10 -12q0 -27 -45 -55.5t-90 -28.5q-59 0 -59 82q0 47 20.5 119.5t41 123t58 135.5t44.5 101q63 150 63 178q0 14 -10 15q-6 0 -23 -11 q-106 -72 -225 -231.5t-176 -372.5q-4 -16 -43 -37.5t-66 -21.5q-25 0 -24 18l1 4l1 4q57 270 192 629q10 27 10.5 37t-6.5 10q-10 0 -30 -22q-131 -152 -231.5 -301.5t-140.5 -227.5t-79 -127t-82 -49q-16 0 -16 17z" />
<glyph unicode="n" horiz-adv-x="667" d="M-6 -20q4 -6 76.5 204.5t103.5 304.5q8 25 8 37q0 8 -3 15.5t-3 11.5q0 8 6 27q47 131 80 173t100 42q27 0 31 -19q-168 -344 -200 -491q337 544 517 544h1q41 0 41 -26q-1 -18 -15 -41q-104 -174 -194 -399.5t-90 -337.5q0 -37 16 -37q6 0 40 20.5t40 20.5q12 0 12 -13 q0 -25 -45 -55.5t-90 -30.5q-59 0 -59 88q0 80 32.5 186.5t102 272.5t69.5 168q10 27 11 41q0 10 -7 10q-10 0 -45 -37q-88 -98 -251.5 -335.5t-167.5 -292.5q-2 -14 -39 -40t-62 -26q-14 0 -16 15z" />
<glyph unicode="o" horiz-adv-x="534" d="M43 133q0 47 8 94q10 53 37 137.5t70 182.5t105.5 166.5t125.5 68.5h14q0 29 16.5 49.5t45.5 20.5q29 -2 51.5 -120t65.5 -122q39 -6 39 -22q0 -19 -39 -37q-23 -10 -47 -10q0 -240 -125 -410t-248 -170q-119 0 -119 172zM135 123q0 -100 58 -100q82 0 183 166.5 t101 367.5q-18 10 -44.5 72.5t-37.5 62.5q-63 0 -147 -187.5t-105 -295.5q-8 -47 -8 -86z" />
<glyph unicode="p" horiz-adv-x="610" d="M-105.5 -364.5q33.5 106.5 98 277.5t66.5 179q-6 14 -6 35q0 47 45 76q137 424 160 506q0 2 -22.5 5t-22.5 13q0 16 32 30l31 13q-8 8 -8 16q0 29 39 63t66 34q16 0 16 -21q0 -18 -10 -39l-23 -49q145 -102 193 -334q10 2 50 16.5t60 18.5q8 2 22.5 2t14.5 -6 q0 -14 -20.5 -25.5t-62.5 -23.5t-56 -19q10 -53 10 -116q0 -160 -80.5 -232.5t-191.5 -72.5q-119 0 -184 53q-18 -53 -69.5 -201.5t-74.5 -214.5q-2 -4 -2 -8q0 -6 7.5 -18.5t7.5 -24.5q0 -25 -31 -79t-64 -54q-24 0 -24 47t33.5 153.5zM135 80q72 -47 139 -47 q104 0 154.5 68.5t50.5 166.5q0 46 -10 107q-35 0 -141.5 -64.5t-147.5 -101.5zM203 281q98 68 256 127q-14 74 -39 137t-46.5 96t-35.5 33q-6 0 -26.5 -58.5t-55.5 -169t-53 -165.5z" />
<glyph unicode="q" horiz-adv-x="636" d="M20 47q0 90 71 257t167 303t160 136h6l22 17q18 20 58 20q33 0 86 -16t59 -16q8 0 23.5 16t34.5 16q55 0 55 -51q0 -39 -39 -123q-2 -4 -19.5 -12t-19.5 -14q-84 -199 -123 -294.5t-94 -259t-88 -307.5q-8 -33 -8 -57q0 -37 22 -37q39 0 116 73t83 73q10 0 10 -15 q0 -12 -7 -26.5t-11 -16.5q-201 -172 -279 -172q-41 0 -47 51q0 133 242 770q-61 -78 -127 -151.5t-159 -150t-146 -76.5q-47 0 -48 63zM133 119q0 -29 19 -29q43 0 152.5 116t164.5 187q59 90 107.5 183.5t48.5 121.5q0 10 -9 11h-6q-12 0 -42.5 5t-49.5 5q-31 0 -61 -10 q-27 -6 -105 -119t-148.5 -256.5t-70.5 -214.5z" />
<glyph unicode="r" horiz-adv-x="552" d="M12 -2q0 55 13.5 100t33.5 54q45 170 65 255l19 85q4 14 4 32q0 10 -4 18.5t-4 16.5q0 12 4 23q33 129 67 176t99 47q25 0 29 -17q-2 -6 -29.5 -71.5t-51.5 -122.5t-52.5 -145.5t-44.5 -161.5q68 133 209 320.5t233 187.5q49 0 49 -62q0 -63 -47 -129q-16 -23 -44 -44 t-42 -21q-12 0 -12 12q0 8 19.5 57t19.5 68q0 14 -10 14q-72 0 -212.5 -221t-207.5 -432q-12 -16 -39 -32.5t-45 -16.5q-12 0 -19 10z" />
<glyph unicode="s" horiz-adv-x="520" d="M29 6q0 25 22 25q68 0 189.5 42t121.5 91q0 29 -46 67.5t-100 71.5t-100 79t-46 89q0 35 24 66q18 23 39 44t39 37.5t42 33t42 28.5t43 24l39 20q14 7 37.5 17.5t33 13.5t30 11t22.5 8q35 10 53 10q74 0 74 -82q-4 -41 -53.5 -116.5t-75.5 -75.5q-8 0 -8 12 q0 18 22.5 74.5t22.5 73.5q0 31 -37 30q-6 0 -68 -10q-51 -12 -134 -65.5t-83 -116.5q0 -23 10 -41q27 -53 93.5 -90t114.5 -70t48 -86q0 -90 -138 -173t-236 -83q-16 0 -26.5 13.5t-10.5 27.5z" />
<glyph unicode="t" horiz-adv-x="473" d="M109 715q0 14 26.5 33.5t42.5 19.5h131l8 29q6 25 7 34q0 8 -4.5 15.5t-4.5 13.5t7 25q41 131 74.5 174t99.5 43q29 0 32 -19q-45 -96 -125 -315h199q57 0 57 -12q0 -20 -94 -31.5t-180 -11.5q-102 -289 -166 -553q-10 -41 -10 -60q0 -35 22 -34q41 0 120 72.5t85 72.5 q10 0 10 -12q0 -35 -22 -45q-188 -170 -264 -170q-47 0 -47 59q0 33 49 193q6 20 131 469q-49 -8 -137 -9q-47 0 -47 19z" />
<glyph unicode="u" horiz-adv-x="681" d="M14 18q0 31 23 88q0 2 49 111t79 187.5t30 113.5q0 10 -4.5 19.5t-4.5 15.5q0 2 4 22q35 131 66 173.5t102 42.5q29 0 35 -19q-246 -604 -246 -633q0 -8 7 -8q8 0 49 33q205 158 360 442q2 63 39 131t109 68q22 -1 24 -19q-6 -18 -45 -122.5t-63 -176.5 q-37 -104 -79 -253.5t-42 -182.5q0 -6 4 -6q16 0 82.5 51t91.5 51q16 0 16 -10q0 -14 -46 -47t-105.5 -68.5t-65.5 -39.5q-14 -12 -41.5 -42t-51 -49.5t-42.5 -19.5q-27 0 -26 23q0 14 32.5 43.5t42.5 52.5q35 84 140 489q-96 -143 -255 -320t-239 -177q-29 0 -29 36z" />
<glyph unicode="v" horiz-adv-x="714" d="M104 -12q0 14 4.5 19t9.5 9t13 12.5t15.5 34t14.5 67.5t13 123t8 189q0 37 -12 55.5t-12 71.5q0 100 19.5 139.5t80.5 39.5q29 0 40 -19q-72 -571 -79 -645q2 2 41 35t77 71.5t88 98t94 141.5t73 174q4 16 4 25q0 14 -8 35.5t-8 31.5q0 25 43 77t71 52q23 0 23 -43 q0 -24 -6 -57q-23 -121 -103 -259t-174 -242.5t-183 -175.5t-134 -71q-12 0 -13 11z" />
<glyph unicode="w" horiz-adv-x="1009" d="M35 653q0 29 53 76t82 47q84 0 84 -289q0 -61 -6 -165q63 117 170.5 280.5t150.5 163.5q16 23 41 22q39 0 39 -45q0 -6 -2 -16q-2 -11 -2 -16q0 -15 19 -68q16 -49 40.5 -154.5t43 -184.5t20.5 -79q29 0 127 192.5t104 297.5q0 12 -8 36.5t-8 39.5q0 25 21 47h2 q23 18 34 18q27 0 40.5 -40t13.5 -77q0 -12 -37 -94t-102.5 -207t-129.5 -227q-25 -39 -38 -64.5t-17 -37t-15.5 -50.5t-19.5 -67q-8 -14 -22 -15q-20 0 -42 26t-22 48q0 8 1 25.5t1 27.5q0 281 -112 553q-74 -43 -210 -312t-136 -361q-6 -23 -23 -23q-20 0 -45 28.5 t-25 51.5q0 6 2 8q86 211 86 389q0 88 -14 144.5t-32.5 77t-39.5 20.5q-4 0 -28.5 -16.5t-32.5 -16.5q-6 0 -6 6z" />
<glyph unicode="x" horiz-adv-x="577" d="M-154 -190q0 47 92.5 166.5t213 256t151.5 183.5l-3 14q-3 14 -6 28.5t-9 37t-13.5 42t-18.5 40t-22.5 35t-27 23.5t-31.5 9q-10 0 -28.5 -2t-24.5 -2q-27 0 -29 25q-2 6 26.5 23.5t39.5 17.5q29 2 58.5 34.5t35.5 32.5h2q35 0 76 -110.5t53 -174.5q27 49 141.5 173 t141.5 124q23 0 22 -30q0 -52 -27 -70q-18 -6 -20 -6l-6 2q-6 0 -65.5 -60.5t-75.5 -78.5q-98 -98 -99 -105l53 -189q53 -189 54 -237q0 -23 -27 -62.5t-53 -39.5q-8 0 -22.5 83t-35 198.5t-40.5 170.5q-47 -61 -137.5 -169.5t-158 -197.5t-118.5 -181q-23 -41 -43 -41 q-18 0 -19 37z" />
<glyph unicode="y" horiz-adv-x="649" d="M-178 -637q0 74 88 224.5t181 279.5t95 137q23 68 23 184q0 168 -32 295t-87 127q-8 0 -18 -1l-11 -1q-8 0 -8 10q0 16 45 50q6 4 35 45t43 41q43 0 77 -132.5t34 -293.5q0 -16 -1 -49t-1 -50q0 -33 16 -32q47 0 189.5 217t142.5 276q0 12 -10 12q-4 0 -14.5 -4t-16.5 -4 q-10 0 -17 11q0 27 59.5 59.5t96.5 32.5q10 0 14 -2q6 -8 7 -23q0 -82 -179.5 -329.5t-287.5 -374.5q0 10 -4 -3q-31 -122 -36 -136q-10 -22 -20 -21q-8 0 -21.5 5t-15.5 5q-276 -371 -276 -475q0 -18 8 -37.5t8 -26.5q0 -23 -24.5 -39t-48.5 -16q-33 0 -33 39z" />
<glyph unicode="z" horiz-adv-x="620" d="M-23 43q0 55 39 90q356 344 537 561h-111q-160 0 -186 -28q-2 -2 -18.5 -22.5t-32 -38t-19.5 -17.5q-18 0 -18 14q0 86 46 124t163 38q4 0 52 1t83 1t79 -3t68.5 -12.5t24.5 -23.5q0 -12 -2 -20q-10 -37 -27.5 -55.5t-33 -22.5t-15.5 -6q-102 -84 -271 -255t-235 -270 q-4 -4 -4 -12q0 -33 140 -33q203 0 317 29q20 6 35 6q20 0 20 -14q0 -27 -24.5 -60.5t-53.5 -33.5q-27 0 -26 20q-123 10 -197 10q-78 0 -171 -7t-107 -7q-51 0 -52 47z" />
<glyph unicode="{" horiz-adv-x="661" d="M74 549q3 15 37 24q145 14 206.5 57.5t100.5 174.5q10 37 26.5 112.5t26.5 112.5q39 133 126 208t269 73h2q6 0 9.5 -9.5t-2 -20.5t-17.5 -13q-154 0 -214 -70t-99 -227q-31 -123 -51 -170q-37 -94 -104.5 -167t-153.5 -91q129 -49 120 -187q-6 -76 -52 -218t-52 -216 q-2 -39 8 -66.5t23.5 -41t43 -19.5t47 -7t52.5 -1h16q29 -5 9 -24q-15 -13 -41 -13q-115 0 -180.5 36t-55.5 144q6 76 53 219.5t54 217.5q6 84 -38 123.5t-114 39.5q-59 0 -55 19z" />
<glyph unicode="|" horiz-adv-x="448" d="M207 1262q0 20 35 20q82 0 82 -176q0 -223 -21.5 -700.5t-50.5 -559.5q-12 -23 -25.5 -25.5t-17.5 12.5t0 40q14 57 14 354v682q0 113 -4 192t-8 114.5t-4 46.5z" />
<glyph unicode="}" horiz-adv-x="870" d="M56.5 -238.5q-3.5 9.5 1.5 20.5t18 13q154 0 214 69.5t99 227.5q31 121 51 170q37 94 104.5 167t153.5 91q-129 49 -120 187q6 76 52 218t52 216q2 39 -8 66.5t-23.5 41t-43 19.5t-47 7t-52.5 1h-16q-29 5 -9 23q15 13 41 14q115 0 180.5 -36t55.5 -144 q-6 -76 -53.5 -219.5t-53.5 -217.5q-6 -84 38 -124t114 -40q59 0 55 -18q-3 -15 -37 -25q-145 -14 -206.5 -57t-100.5 -174q-10 -37 -26.5 -112.5t-26.5 -112.5q-39 -133 -126 -208t-269 -73h-2q-6 0 -9.5 9.5z" />
<glyph unicode="~" horiz-adv-x="622" d="M59 901q0 14 34 44t54 40q33 20 74 21q35 0 98.5 -21.5t96.5 -21.5q49 0 86 43q12 -1 12 -9q0 -14 -29.5 -42.5t-52.5 -43.5q-27 -16 -55 -16q-37 0 -102.5 27.5t-100.5 27.5t-68.5 -26.5t-44.5 -26.5q-2 2 -2 4z" />
<glyph unicode="&#xa2;" horiz-adv-x="473" d="M128 518.5q7 71.5 42 152.5t82 150q53 82 106 107q25 8 63 25.5t54 21.5q125 305 143 313q19 6 27 2q14 -10 2 -39q-31 -61 -121 -272q100 -4 84 -94q-10 -47 -46 -56q-29 -7 -29 25q0 8 9 36t3 42t-35 14q-106 -248 -199 -497q57 16 114.5 59t91.5 80t36 37 q31 -3 -24 -69q-2 -3 -5 -5q-35 -39 -99.5 -83t-127.5 -60q-76 -211 -88 -299q-6 -33 1 -52.5t21 -19.5q8 0 3 -10q-2 -6 -12.5 -16.5t-12.5 -10.5q-14 -8 -26.5 0t-16.5 27q-23 90 80 370q-51 -4 -86 21q-41 29 -34 100.5zM242 638q-80 -192 2 -198h18q82 205 127 314 q8 23 31.5 82t36.5 90q-37 -18 -80 -49q-55 -47 -135 -239z" />
<glyph unicode="&#xa3;" horiz-adv-x="1673" d="M82 31q0 47 28.5 75.5t79.5 30.5q88 4 259 -51q39 49 120.5 220t126.5 308h-198q-25 2 -30 16.5t6 30t30 15.5q37 2 110.5 0t94.5 -2q12 29 36.5 106.5t48 150.5t67.5 160t94.5 150.5t130 106.5t174.5 43q88 0 148 -56.5t60 -140.5q0 -72 -30.5 -111t-67.5 -39 q-18 0 -25.5 6.5t9.5 20.5q43 31 55 76q25 88 -23.5 146.5t-152.5 58.5q-63 0 -118.5 -37t-93.5 -89t-77 -134t-60.5 -144.5t-50 -149.5t-42.5 -124q14 0 100 -3t137 -3q75 0 83 -27q4 -13 -19 -20q-19 -6 -52 -7q-59 0 -156.5 2t-105.5 2q-2 -2 -32.5 -79.5t-42 -104 t-43 -97.5t-53 -110t-51.5 -86t-56 -78q141 -68 363 -112.5t392 -44.5q104 0 190.5 58.5t86.5 158.5q0 55 -22.5 100t-43.5 56q-16 8 -11 21t24 13q37 0 70.5 -50t33.5 -126q0 -147 -99.5 -227t-246.5 -80q-53 0 -105.5 4t-116 17.5t-99 20.5t-113.5 31.5t-95.5 31 t-108.5 37t-95 32.5q-180 61 -258 62q-98 0 -99 -93q0 -13 -23 -9q-42 7 -42 67z" />
<glyph unicode="&#xa5;" horiz-adv-x="1191" d="M150 293q-55 43 16 82q23 6 40 4t42.5 -8t32.5 -6q39 0 133 -5v2q0 2 2 5q12 45 18 102q-104 -6 -196 -2q-41 0 -54 6q-55 43 17 82q23 6 40 4t42.5 -8t31.5 -6q39 0 125 -4q0 18 -2 24q-78 201 -219 631q-29 111 8 127q63 29 138 4q35 -12 -5 -45q-98 -27 162 -649 q111 90 307.5 301t231.5 346q4 23 18.5 53.5t28.5 30.5q2 0 13.5 1t19.5 1t18 -3t16.5 -12.5t8.5 -25.5q6 -47 -191 -286q-16 -19 -24 -29q-127 -154 -422 -428q-12 -37 -15 -45q70 0 111 2q100 2 143 4q51 2 52 -12q0 -11 -35 -19q-90 -23 -285 -37q-14 -72 -22 -119 q71 0 112 2q100 2 144 4q51 2 51 -12q0 -11 -35 -18q-88 -23 -283 -37q-6 -37 -6 -64q-6 -80 -12 -102q-18 -68 -41 -93.5t-88 -33.5q-12 -6 -35.5 -1t-21.5 24q10 18 30.5 61t26.5 55q33 70 55 148q-100 -6 -190 -2q-41 0 -53 6z" />
<glyph unicode="&#xa9;" horiz-adv-x="1636" d="M126 694q73 276 301 451q227 176 529 176q383 0 532 -242q122 -199 39 -470q-82 -269 -316 -445q-239 -180 -547 -180q-346 0 -489 236q-121 201 -49 474zM187 579q-46 -270 108 -423q132 -132 385 -131q315 2 545 249q191 206 226 468q37 268 -118 419 q-128 125 -362 125q-309 0 -545 -245q-195 -203 -239 -462zM389 380q-73 163 15 369q90 210 287 310q125 64 270 63q137 0 182 -61q12 29 12 47q0 25 19 25q16 0 16 -15q0 -14 -4 -30.5t-11.5 -36t-9.5 -29.5q12 -29 13 -80q-6 -70 -37 -70q-41 0 -39 39q2 31 24 99 q-43 70 -180 69q-235 0 -385 -196q-125 -163 -116 -349q9 -189 157 -257q64 -30 150 -29q238 0 440 186q27 34 37 29q16 -2 -2.5 -41t-38.5 -62q-70 -78 -205 -121.5t-262 -43.5q-250 0 -332 185z" />
<glyph unicode="&#xad;" d="M57 254q-20 20 2.5 49t49.5 41q56 25 54 -1q-1 -12 -11 -21q157 -11 237 -7q74 2 105 4q40 2 36 -12q-2 -10 -24 -16q-57 -18 -192.5 -31.5t-217.5 -9.5q-31 0 -39 4z" />
<glyph unicode="&#xae;" horiz-adv-x="1306" d="M278 797q-54 132 27 283q88 164 266 207q50 12 103 11q214 0 274 -150q52 -130 -34 -280q-93 -162 -273 -206q-53 -13 -109 -13q-195 0 -254 148zM302 850q19 -142 167 -172q33 -7 72 -6q109 0 200 65q-8 -2 -34 -2q-37 0 -93.5 51.5t-101.5 116.5l-16 27 q-20 -76 -27 -123q-2 -8 -2 -35q0 -6 -6 -12q-4 -6 -18.5 -7t-18.5 3l10 53q6 35 39 141q-17 23 -11 27q4 3 17 6q20 70 66 182q6 41 30 72q7 11 37 9q9 -4 11 -9q-16 -25 -19 -35q8 0 33 -2t39 -3t38.5 -5t35 -10t27 -18.5t14 -29t-2.5 -40.5q-37 -145 -253 -142 q-18 0 -3 -16q6 -8 35 -44t46.5 -54.5t43 -44t47 -35.5t37.5 -4q12 2 17 -2q76 61 116.5 151t38.5 173t-62 142.5t-171 59.5q-174 0 -293 -155q-103 -135 -85 -273zM510 975q61 -14 138 12t102 98q18 59 -24 78t-130 23h-2q-39 -59 -84 -211z" />
<glyph unicode="&#xb4;" horiz-adv-x="727" d="M621 913q-41 -10 50 87.5t212 211.5q20 18 42.5 5t27.5 -36.5t-9 -37.5q-45 -29 -113.5 -86.5t-122 -96t-87.5 -47.5z" />
<glyph unicode="&#x2000;" horiz-adv-x="715" />
<glyph unicode="&#x2001;" horiz-adv-x="1430" />
<glyph unicode="&#x2002;" horiz-adv-x="715" />
<glyph unicode="&#x2003;" horiz-adv-x="1430" />
<glyph unicode="&#x2004;" horiz-adv-x="476" />
<glyph unicode="&#x2005;" horiz-adv-x="357" />
<glyph unicode="&#x2006;" horiz-adv-x="238" />
<glyph unicode="&#x2007;" horiz-adv-x="238" />
<glyph unicode="&#x2008;" horiz-adv-x="178" />
<glyph unicode="&#x2009;" horiz-adv-x="286" />
<glyph unicode="&#x200a;" horiz-adv-x="79" />
<glyph unicode="&#x2010;" d="M57 254q-20 20 2.5 49t49.5 41q56 25 54 -1q-1 -12 -11 -21q157 -11 237 -7q74 2 105 4q40 2 36 -12q-2 -10 -24 -16q-57 -18 -192.5 -31.5t-217.5 -9.5q-31 0 -39 4z" />
<glyph unicode="&#x2011;" d="M57 254q-20 20 2.5 49t49.5 41q56 25 54 -1q-1 -12 -11 -21q157 -11 237 -7q74 2 105 4q40 2 36 -12q-2 -10 -24 -16q-57 -18 -192.5 -31.5t-217.5 -9.5q-31 0 -39 4z" />
<glyph unicode="&#x2012;" d="M57 254q-20 20 2.5 49t49.5 41q56 25 54 -1q-1 -12 -11 -21q157 -11 237 -7q74 2 105 4q40 2 36 -12q-2 -10 -24 -16q-57 -18 -192.5 -31.5t-217.5 -9.5q-31 0 -39 4z" />
<glyph unicode="&#x2013;" horiz-adv-x="813" d="M51.5 298q-4.5 15 6 30.5t22.5 15.5h162q301 0 456 -8q160 -7 195 -25q27 -15 -10 -23q-20 -5 -56 -5h-751q-20 0 -24.5 15z" />
<glyph unicode="&#x2014;" horiz-adv-x="1241" d="M51.5 298q-4.5 15 6 30.5t22.5 15.5h162q604 0 759 -8q160 -7 195 -25q27 -15 -10 -23q-20 -5 -56 -5h-1054q-20 0 -24.5 15z" />
<glyph unicode="&#x2018;" horiz-adv-x="452" d="M86 903.5q-2 20.5 8 36.5t12 21q60 192 221 312q83 63 105 48q3 -2 2 -8h-2q-84 -86 -157.5 -192.5t-41.5 -135.5q20 -25 17.5 -58.5t-29.5 -54.5l-4 -2h2q-4 -4 -10 -9t-22.5 -15t-31 -16.5t-29.5 -5.5t-24 16q-14 43 -16 63.5z" />
<glyph unicode="&#x2019;" horiz-adv-x="428" d="M281 684v2q80 80 154.5 187.5t43.5 138.5l-2 2q-23 23 -17.5 56.5t32.5 53.5l2 2h2q4 4 10 9.5t22.5 15.5t30.5 16.5t28.5 4t22.5 -16.5q14 -43 15.5 -62.5t-9 -36t-12.5 -20.5l2 -2q-63 -191 -223 -312q-80 -61 -100 -46q-3 3 -2 8z" />
<glyph unicode="&#x201c;" horiz-adv-x="563" d="M86 903.5q-2 20.5 8 36.5t12 21q60 192 221 312q83 63 105 48q3 -2 2 -8h-2q-84 -86 -157.5 -192.5t-41.5 -135.5q20 -25 17.5 -58.5t-29.5 -54.5l-4 -2h2q-4 -4 -10 -9t-22.5 -15t-31 -16.5t-29.5 -5.5t-24 16q-14 43 -16 63.5zM358.5 913.5q-2.5 22.5 0.5 29.5 t9.5 16.5t8.5 17.5q62 194 223 315q80 60 100 45q3 -2 2 -8q-84 -86 -157.5 -192.5t-40.5 -135.5q20 -25 17 -58.5t-29 -53.5h-3l-2 -2v2q-4 -4 -10 -9.5t-22.5 -15.5t-30.5 -16t-28.5 -5t-22.5 15q-12 33 -14.5 55.5zM487 887h2h-2z" />
<glyph unicode="&#x201d;" horiz-adv-x="831" d="M182 821h2q82 82 157 188.5t42 139.5l-2 2q-23 23 -17.5 56.5t31.5 54.5l2 2v-2q4 4 10.5 9t22.5 15t30.5 16.5t30 5t23.5 -15.5q14 -43 15 -62.5t-9 -35.5t-12 -20l2 -3q-63 -192 -223 -312q-81 -61 -102 -46q-4 3 -3 8zM451 838l2 2q80 80 154.5 187.5t41.5 137.5v2 q-23 25 -17.5 57.5t30.5 53.5l4 2q4 4 10 9t22.5 15.5t30.5 16.5t28.5 4t22.5 -16q10 -33 13.5 -54.5t0.5 -28.5t-9.5 -17.5t-8.5 -18.5v-2q-63 -191 -223 -312q-80 -61 -100 -47q-3 3 -2 9z" />
<glyph unicode="&#x2022;" horiz-adv-x="1099" d="M111 483q0 184 130 314.5t312 130.5q184 0 314 -130.5t130 -312.5q0 -184 -130 -314t-312 -130q-184 0 -314 130t-130 312z" />
<glyph unicode="&#x2026;" horiz-adv-x="1402" d="M231 53q0 27 32 55.5t63.5 42t35.5 3.5q-4 -16 -11 -47t-12 -54.5t-5 -29.5q-6 -35 -62 -50q-18 -2 -27 12.5t-11.5 30t-2.5 37.5zM657 53q0 27 32 55.5t63.5 42t35.5 3.5q-4 -16 -11 -47t-12 -54.5t-5 -29.5q-6 -35 -62 -50q-18 -2 -27 12.5t-11.5 30t-2.5 37.5z M1083 49q0 27 32 55.5t63.5 42t33.5 3.5q-4 -16 -11 -47t-12 -54.5t-5 -30.5q-6 -35 -60 -49q-18 -2 -27.5 12.5t-11.5 30t-2 37.5z" />
<glyph unicode="&#x202f;" horiz-adv-x="286" />
<glyph unicode="&#x205f;" horiz-adv-x="357" />
<glyph unicode="&#x20ac;" horiz-adv-x="1400" d="M24.5 457.5q-4.5 15.5 6 30t22.5 14.5q25 -2 87.5 0t74.5 2h47v24q-4 125 21 234h-148q-20 0 -24.5 15.5t6 29.5t22.5 14q25 -2 86.5 0t73.5 2q66 233 237 379t416 146q270 0 363 -97q20 -20 12 -95q-6 -21 -12 -19q-20 33 -54 63.5t-117 63t-188 32.5q-201 0 -346 -132 t-207 -341q301 -4 355 -8q160 -6 194 -24q27 -15 -9 -24q-20 -5 -56 -5h-500q-23 -104 -22 -227v-33q55 0 127.5 -2t121 -3t58.5 -1q159 -7 194 -25q27 -15 -9 -24q-20 -5 -56 -5h-432q23 -193 134 -310.5t308 -117.5q102 0 192.5 29t149.5 74t95 82t59 71q18 27 19 -7 q2 -60 -32 -103q-74 -102 -205 -147.5t-268 -45.5q-242 0 -383 125t-170 350h-219q-20 0 -24.5 15.5z" />
<glyph unicode="&#x2122;" horiz-adv-x="1343" d="M55 1255q16 27 246.5 44.5t343.5 17.5q45 -1 45 -17q0 -20 -70.5 -30t-147.5 -20.5t-89 -32.5q-25 -47 -50.5 -117t-52 -160t-38.5 -125q-39 -115 -54 -137q-12 -18 -43 -19q-37 0 -36 27q0 20 36.5 112.5t86 207t55.5 129.5q25 74 24 86q0 18 -57 18q-25 0 -74 -5 t-74 -5q-43 0 -51 26zM520 686q0 8 38 103.5t81 203t51 131.5q2 8 5 58.5t15.5 82t39.5 31.5q18 0 26 -45q2 -4 19.5 -132t47 -205.5t81.5 -77.5q45 0 127 110.5t148.5 221t74.5 110.5q24 0 24 -55q0 -20 -12 -75.5t-14 -70.5q0 -8 -5 -101t-11.5 -164t-12.5 -81 q-20 -35 -72 -35q-23 0 -22 19q0 12 2 16q16 61 35.5 177t30.5 161q-213 -276 -314 -276q-106 0 -182 276q-23 -49 -57.5 -182t-65.5 -182q-20 -33 -55 -33q-23 0 -23 14z" />
<glyph unicode="&#xe000;" horiz-adv-x="785" d="M0 785h785v-785h-785v785z" />
</font>
</defs>
</svg>
