<?xml version="1.0" encoding="UTF-8" standalone="no"?>
<svg width="59px" height="66px" viewBox="0 0 59 66" version="1.1" xmlns="http://www.w3.org/2000/svg" xmlns:xlink="http://www.w3.org/1999/xlink">
    <!-- Generator: Sketch 3.6 (26304) - http://www.bohemiancoding.com/sketch -->
    <title>Page 1</title>
    <desc>Created with Sketch.</desc>
    <defs>
        <filter x="-50%" y="-50%" width="200%" height="200%" filterUnits="objectBoundingBox" id="filter-1">
            <feOffset dx="0" dy="0" in="SourceAlpha" result="shadowOffsetOuter1"></feOffset>
            <feGaussianBlur stdDeviation="10" in="shadowOffsetOuter1" result="shadowBlurOuter1"></feGaussianBlur>
            <feColorMatrix values="0 0 0 0 0.517647059   0 0 0 0 0.101960784   0 0 0 0 1  0 0 0 0.7 0" in="shadowBlurOuter1" type="matrix" result="shadowMatrixOuter1"></feColorMatrix>
            <feMerge>
                <feMergeNode in="shadowMatrixOuter1"></feMergeNode>
                <feMergeNode in="SourceGraphic"></feMergeNode>
            </feMerge>
        </filter>
    </defs>
    <g id="Page-1" stroke="none" stroke-width="1" fill="none" fill-rule="evenodd" filter="url(#filter-1)">
        <g id="Chat-Keyboard-Copy-5" transform="translate(-303.000000, -668.000000)" fill="#A49EBD">
            <g id="Group-12" transform="translate(303.000000, 664.000000)">
                <g id="Group-6">
                    <g id="Group-6-Copy">
                        <path d="M37.4482309,36.173959 C38.9719094,36.173959 40.0970874,35.048781 40.0970874,33.5251025 C40.0970874,32.0248652 38.9719094,30.8996872 37.4482309,30.8996872 C35.9245523,30.8996872 34.8228155,32.0248652 34.8228155,33.5251025 C34.8228155,35.048781 35.9245523,36.173959 37.4482309,36.173959 M29.5485437,28.2742718 C31.0722222,28.2742718 32.173959,27.1490939 32.173959,25.6254153 C32.173959,24.125178 31.0722222,23 29.5485437,23 C28.0248652,23 26.9231284,24.125178 26.9231284,25.6254153 C26.9231284,27.1490939 28.0248652,28.2742718 29.5485437,28.2742718 M37.4482309,44.0736462 C38.9719094,44.0736462 40.0970874,42.9484682 40.0970874,41.4482309 C40.0970874,39.9245523 38.9719094,38.7993743 37.4482309,38.7993743 C35.9245523,38.7993743 34.8228155,39.9245523 34.8228155,41.4482309 C34.8228155,42.9484682 35.9245523,44.0736462 37.4482309,44.0736462 M29.5485437,36.173959 C31.0722222,36.173959 32.173959,35.048781 32.173959,33.5251025 C32.173959,32.0248652 31.0722222,30.8996872 29.5485437,30.8996872 C28.0248652,30.8996872 26.9231284,32.0248652 26.9231284,33.5251025 C26.9231284,35.048781 28.0248652,36.173959 29.5485437,36.173959 M21.6488565,28.2742718 C23.1725351,28.2742718 24.2742718,27.1490939 24.2742718,25.6254153 C24.2742718,24.125178 23.1725351,23 21.6488565,23 C20.125178,23 19,24.125178 19,25.6254153 C19,27.1490939 20.125178,28.2742718 21.6488565,28.2742718 M29.5485437,44.0736462 C31.0722222,44.0736462 32.173959,42.9484682 32.173959,41.4482309 C32.173959,39.9245523 31.0722222,38.7993743 29.5485437,38.7993743 C28.0248652,38.7993743 26.9231284,39.9245523 26.9231284,41.4482309 C26.9231284,42.9484682 28.0248652,44.0736462 29.5485437,44.0736462 M21.6488565,36.173959 C23.1725351,36.173959 24.2742718,35.048781 24.2742718,33.5251025 C24.2742718,32.0248652 23.1725351,30.8996872 21.6488565,30.8996872 C20.125178,30.8996872 19,32.0248652 19,33.5251025 C19,35.048781 20.125178,36.173959 21.6488565,36.173959 M29.5485437,51.9733333 C31.0722222,51.9733333 32.173959,50.8481553 32.173959,49.347918 C32.173959,47.8242395 31.0722222,46.6990615 29.5485437,46.6990615 C28.0248652,46.6990615 26.9231284,47.8242395 26.9231284,49.347918 C26.9231284,50.8481553 28.0248652,51.9733333 29.5485437,51.9733333 M21.6488565,44.0736462 C23.1725351,44.0736462 24.2742718,42.9484682 24.2742718,41.4482309 C24.2742718,39.9245523 23.1725351,38.7993743 21.6488565,38.7993743 C20.125178,38.7993743 19,39.9245523 19,41.4482309 C19,42.9484682 20.125178,44.0736462 21.6488565,44.0736462 M37.4482309,28.2742718 C38.9719094,28.2742718 40.0970874,27.1490939 40.0970874,25.6254153 C40.0970874,24.125178 38.9719094,23 37.4482309,23 C35.9245523,23 34.8228155,24.125178 34.8228155,25.6254153 C34.8228155,27.1490939 35.9245523,28.2742718 37.4482309,28.2742718" id="Page-1"></path>
                    </g>
                </g>
            </g>
        </g>
    </g>
</svg>