<?xml version="1.0" encoding="UTF-8" standalone="no"?>
<svg width="14px" height="20px" viewBox="0 0 14 20" version="1.1" xmlns="http://www.w3.org/2000/svg" xmlns:xlink="http://www.w3.org/1999/xlink">
    <!-- Generator: Sketch 3.6 (26304) - http://www.bohemiancoding.com/sketch -->
    <title>Page 1</title>
    <desc>Created with Sketch.</desc>
    <defs></defs>
    <g id="Page-1" stroke="none" stroke-width="1" fill="none" fill-rule="evenodd">
        <g id="Chat-Keyboard-Copy-5" transform="translate(-412.000000, -627.000000)" fill="#746DA2">
            <g id="Group-10" transform="translate(412.000000, 627.000000)">
                <path d="M7.17492196,13.7337149 L7.17492196,13.8330905 L7.17492196,15.1448491 C7.17492196,15.5224766 6.87679501,15.8404787 6.4792924,15.8404787 C6.10166493,15.8404787 5.78366285,15.5423517 5.78366285,15.1448491 L5.78366285,13.8330905 L5.78366285,13.7337149 C5.40603538,13.4952133 5.14765869,13.0778356 5.14765869,12.6008325 C5.14765869,11.8654527 5.74391259,11.2890739 6.45941727,11.2890739 C7.19479709,11.2890739 7.77117586,11.8853278 7.77117586,12.6008325 C7.81092612,13.0977107 7.55254943,13.5150884 7.17492196,13.7337149 M6.49916753,2.22601457 C7.27429761,2.22601457 7.98980229,2.52414152 8.5264308,3.06077003 C9.06305931,3.59739854 9.36118626,4.33277836 9.36118626,5.0880333 L9.36118626,7.61217482 L3.59739854,7.61217482 L3.59739854,5.10790843 C3.61727367,3.51789802 4.90915713,2.22601457 6.49916753,2.22601457 M11.607076,7.69167534 L11.607076,5.10790843 C11.607076,3.73652445 11.0704475,2.46451613 10.1164412,1.49063476 C9.14255983,0.536628512 7.85067638,0 6.49916753,0 C3.67689906,0 1.39125911,2.28563996 1.39125911,5.10790843 L1.39125911,7.69167534 C0.596253902,7.89042664 0,8.60593132 0,9.48043704 L0,17.2516129 C0,18.2652445 0.834755463,19.1 1.8483871,19.1 L11.1698231,19.1 C12.1834547,19.1 13.0182102,18.2652445 13.0182102,17.2516129 L13.0182102,9.46056191 C12.9983351,8.60593132 12.4020812,7.89042664 11.607076,7.69167534" id="Page-1"></path>
            </g>
        </g>
    </g>
</svg>