<?xml version="1.0" encoding="UTF-8" standalone="no"?>
<svg width="170px" height="45px" viewBox="0 0 170 45" version="1.1" xmlns="http://www.w3.org/2000/svg" xmlns:xlink="http://www.w3.org/1999/xlink">
    <!-- Generator: Sketch 3.6 (26304) - http://www.bohemiancoding.com/sketch -->
    <title>Logo</title>
    <desc>Created with Sketch.</desc>
    <defs>
        <path id="path-1" d="M9.0974516e-21,0.0687167692 L9.0974516e-21,44.3978689 L95.6490484,44.3978689 L95.6490484,0.0687167692 L0,0.0687167692 L9.0974516e-21,0.0687167692 Z"></path>
        <path id="path-3" d="M0,44.427757 L169.930439,44.427757 L169.930439,0.0828611711 L0,0.0828611711 L0,44.427757 Z"></path>
    </defs>
    <g id="Page-1" stroke="none" stroke-width="1" fill="none" fill-rule="evenodd">
        <g id="Chat-Keyboard-Copy-5" transform="translate(-355.000000, -49.000000)">
            <g id="Logo" transform="translate(355.000000, 49.000000)">
                <g id="Page-1">
                    <path d="M95.7309018,25.9707543 C95.7309018,25.9707543 94.7029304,35.5451969 102.600966,44.3282324 C102.600966,44.3282324 95.7982808,45.3259638 91.4202354,41.0025993 C87.0422739,36.6793177 82.9336609,33.2871471 82.9336609,33.2871471 L84.4154131,21.9799945 L95.7309018,25.9707543 L95.7309018,25.9707543 Z" id="Fill-1" fill="#841AFF"></path>
                    <g id="Group-5" transform="translate(0.000000, 0.014169)">
                        <mask id="mask-2" fill="white">
                            <use xlink:href="#path-1"></use>
                        </mask>
                        <g id="Clip-4"></g>
                        <path d="M13.3889348,44.3978689 L82.26008,44.3978689 C89.6240336,44.3978689 95.6490484,38.4481054 95.6490484,31.1761262 L95.6490484,13.2904595 C95.6490484,6.0184803 89.6240336,0.0687167692 82.26008,0.0687167692 L13.3889348,0.0687167692 C6.02498124,0.0687167692 -3.35636723e-05,6.0184803 -3.35636723e-05,13.2904595 L-3.35636723e-05,31.1761262 C-3.35636723e-05,38.4481054 6.02498124,44.3978689 13.3889348,44.3978689" id="Fill-3" fill="#841AFF" mask="url(#mask-2)"></path>
                    </g>
                    <path d="M11.7202581,10.2303053 L16.7058899,10.2303053 L16.7058899,18.9758876 C17.8539353,17.5182768 19.3299817,16.1903436 21.8556481,16.1903436 C25.6277014,16.1903436 27.8254506,18.652149 27.8254506,22.6361141 L27.8254506,33.8759006 L22.8397349,33.8759006 L22.8397349,24.1909212 C22.8397349,21.8587935 21.724498,20.6603724 19.8219413,20.6603724 C17.9195523,20.6603724 16.7058899,21.8587935 16.7058899,24.1909212 L16.7058899,33.8759006 L11.7202581,33.8759006 L11.7202581,10.2303053 Z" id="Fill-6" fill="#FFFFFF"></path>
                    <path d="M41.0758263,23.8346927 C40.7806338,21.6319942 39.4686298,20.1419846 37.369306,20.1419846 C35.3028746,20.1419846 33.9580622,21.5995955 33.5645281,23.8346927 L41.0758263,23.8346927 Z M28.677154,25.2921378 L28.677154,25.2274233 C28.677154,20.2716623 32.2524403,16.1903354 37.369306,16.1903354 C43.240767,16.1903354 45.9303919,20.6927628 45.9303919,25.616125 C45.9303919,26.0048268 45.8975834,26.458326 45.8647749,26.9118251 L33.6300612,26.9118251 C34.1221046,29.1467567 35.6965765,30.3128619 37.9269664,30.3128619 C39.5998638,30.3128619 40.8135262,29.7945653 42.1911471,28.5314296 L45.0448144,31.0255508 C43.4047256,33.0336085 41.0430178,34.264594 37.8613495,34.264594 C32.5804413,34.264594 28.677154,30.6044504 28.677154,25.2921378 L28.677154,25.2921378 Z" id="Fill-8" fill="#FFFFFF"></path>
                    <mask id="mask-4" fill="white">
                        <use xlink:href="#path-3"></use>
                    </mask>
                    <g id="Clip-11"></g>
                    <path d="M47.2414561,33.875884 L52.2271718,33.875884 L52.2271718,10.2302888 L47.2414561,10.2302888 L47.2414561,33.875884 Z" id="Fill-10" fill="#FFFFFF" mask="url(#mask-4)"></path>
                    <path d="M54.5225074,33.875884 L59.5082231,33.875884 L59.5082231,10.2302888 L54.5225074,10.2302888 L54.5225074,33.875884 Z" id="Fill-12" fill="#FFFFFF" mask="url(#mask-4)"></path>
                    <path d="M74.8255671,25.2921627 L74.8255671,25.2273653 C74.8255671,22.6685294 72.9559028,20.4335151 70.2006609,20.4335151 C67.3469097,20.4335151 65.6413717,22.603732 65.6413717,25.1626507 L65.6413717,25.2273653 C65.6413717,27.7862839 67.5109521,30.0213812 70.2662779,30.0213812 C73.1198613,30.0213812 74.8255671,27.8510814 74.8255671,25.2921627 M60.721189,25.2921627 L60.721189,25.2273653 C60.721189,20.2392885 64.7885188,16.1903602 70.2662779,16.1903602 C75.7111446,16.1903602 79.7456658,20.174491 79.7456658,25.1626507 L79.7456658,25.2273653 C79.7456658,30.2156906 75.6783361,34.2646189 70.2006609,34.2646189 C64.7557942,34.2646189 60.721189,30.2804881 60.721189,25.2921627" id="Fill-13" fill="#FFFFFF" mask="url(#mask-4)"></path>
                    <path d="M81.1548618,33.875884 L86.4685785,33.875884 L86.4685785,28.693332 L81.1548618,28.693332 L81.1548618,33.875884 Z M80.8925617,11.8498104 L80.8925617,11.2020846 L86.7310464,11.2020846 L86.7310464,11.8498104 L85.1894669,26.1668121 L82.4342251,26.1668121 L80.8925617,11.8498104 Z" id="Fill-14" fill="#FFFFFF" mask="url(#mask-4)"></path>
                    <path d="M101.065898,16.2157655 L106.603988,16.2157655 L110.731732,28.4103611 L114.893879,16.2157655 L120.328761,16.2157655 L113.070784,34.55866 L108.323874,34.55866 L101.065898,16.2157655 Z" id="Fill-15" fill="#FFFFFF" mask="url(#mask-4)"></path>
                    <path d="M134.156675,25.4212024 L134.156675,25.3532562 C134.156675,22.6697144 132.196053,20.3259861 129.30664,20.3259861 C126.314019,20.3259861 124.525327,22.6018511 124.525327,25.2853101 L124.525327,25.3532562 C124.525327,28.0367153 126.485949,30.3806092 129.375446,30.3806092 C132.368067,30.3806092 134.156675,28.1046614 134.156675,25.4212024 M119.365668,25.4212024 L119.365668,25.3532562 C119.365668,20.1221476 123.630939,15.8760927 129.375446,15.8760927 C135.085465,15.8760927 139.316418,20.0542015 139.316418,25.2853101 L139.316418,25.3532562 C139.316418,30.5843648 135.051063,34.8304198 129.30664,34.8304198 C123.596537,34.8304198 119.365668,30.652311 119.365668,25.4212024" id="Fill-16" fill="#FFFFFF" mask="url(#mask-4)"></path>
                    <path d="M141.896147,29.2596053 L141.896147,20.6316858 L139.694706,20.6316858 L139.694706,16.2157655 L141.896147,16.2157655 L141.896147,11.5621164 L147.124696,11.5621164 L147.124696,16.2157655 L151.458773,16.2157655 L151.458773,20.6316858 L147.124696,20.6316858 L147.124696,28.4103611 C147.124696,29.5993361 147.64057,30.1767956 148.810096,30.1767956 C149.773289,30.1767956 150.633191,29.938984 151.390051,29.5313899 L151.390051,33.6755257 C150.289247,34.3209313 149.016512,34.7285254 147.262223,34.7285254 C144.063186,34.7285254 141.896147,33.4716872 141.896147,29.2596053" id="Fill-17" fill="#FFFFFF" mask="url(#mask-4)"></path>
                    <path d="M164.839493,23.8926458 C164.529952,21.5828078 163.154009,20.0202947 160.952568,20.0202947 C158.78553,20.0202947 157.375184,21.5488347 156.962351,23.8926458 L164.839493,23.8926458 Z M151.837094,25.4211858 L151.837094,25.3532397 C151.837094,20.1561042 155.586492,15.8760761 160.952568,15.8760761 C167.109824,15.8760761 169.930431,20.5976713 169.930431,25.7609166 C169.930431,26.1685107 169.896028,26.644051 169.861625,27.1195912 L157.031156,27.1195912 C157.547198,29.4634023 159.198279,30.6862675 161.537331,30.6862675 C163.29162,30.6862675 164.564355,30.1427811 166.009019,28.8179967 L169.001724,31.4335924 C167.281754,33.5395919 164.805174,34.8304032 161.468526,34.8304032 C155.930436,34.8304032 151.837094,30.9920252 151.837094,25.4211858 L151.837094,25.4211858 Z" id="Fill-18" fill="#FFFFFF" mask="url(#mask-4)"></path>
                </g>
            </g>
        </g>
    </g>
</svg>
